<svg width="198" height="214" viewBox="0 0 198 214" fill="none" xmlns="http://www.w3.org/2000/svg">
<path d="M125.544 121.349L40.1277 143.384C37.2303 144.128 34.1566 143.69 31.581 142.167C29.0054 140.643 27.1381 138.159 26.389 135.258L0.556814 34.7634C-0.185816 31.8608 0.25118 28.7816 1.77194 26.2014C3.29269 23.6212 5.77302 21.7506 8.66875 21.0001L88.1347 0.5L108.474 9.62167L133.656 107.586C134.399 110.488 133.962 113.568 132.441 116.148C130.92 118.728 128.44 120.599 125.544 121.349Z" fill="#F2F2F2"/>
<path d="M9.47833 24.1508C7.41621 24.6853 5.64992 26.0174 4.56695 27.8548C3.48399 29.6923 3.17279 31.885 3.70164 33.952L29.5338 134.446C30.0673 136.512 31.397 138.282 33.2311 139.367C35.0653 140.451 37.2541 140.763 39.3174 140.233L124.734 118.198C126.796 117.664 128.562 116.332 129.645 114.494C130.728 112.657 131.039 110.464 130.51 108.397L105.719 11.9509L87.8441 3.93457L9.47833 24.1508Z" fill="white"/>
<path d="M108.257 10.1399L95.0376 13.5501C94.0725 13.7991 93.0483 13.6538 92.1902 13.1462C91.3321 12.6387 90.7104 11.8104 90.4618 10.8436L87.9476 1.06248C87.9366 1.01966 87.9379 0.974595 87.9512 0.93246C87.9646 0.890324 87.9896 0.852822 88.0233 0.824252C88.057 0.795683 88.098 0.777203 88.1417 0.770932C88.1854 0.764662 88.23 0.770854 88.2703 0.7888L108.294 9.69708C108.338 9.7169 108.376 9.75013 108.4 9.79215C108.425 9.83417 108.436 9.8829 108.432 9.93157C108.428 9.98025 108.409 10.0265 108.378 10.0638C108.346 10.1011 108.304 10.1277 108.257 10.1399Z" fill="#F2F2F2"/>
<path d="M101.302 95.9601L62.4134 105.992C62.1745 106.054 61.9258 106.068 61.6815 106.033C61.4373 105.999 61.2022 105.916 60.9897 105.79C60.7773 105.665 60.5916 105.498 60.4434 105.301C60.2951 105.103 60.1871 104.878 60.1256 104.639C60.064 104.4 60.0502 104.151 60.0848 103.906C60.1194 103.661 60.2017 103.426 60.3272 103.213C60.4526 103 60.6187 102.814 60.8159 102.665C61.013 102.517 61.2375 102.409 61.4764 102.347L100.365 92.3148C100.604 92.2532 100.853 92.2393 101.097 92.274C101.341 92.3086 101.577 92.3911 101.789 92.5168C102.001 92.6425 102.187 92.8088 102.335 93.0064C102.484 93.2039 102.592 93.4288 102.653 93.6681C102.715 93.9075 102.729 94.1566 102.694 94.4013C102.659 94.646 102.577 94.8815 102.452 95.0944C102.326 95.3072 102.16 95.4932 101.963 95.6417C101.766 95.7903 101.541 95.8984 101.302 95.9601Z" fill="#CCCCCC"/>
<path d="M110.388 100.175L63.9946 112.144C63.5121 112.268 63 112.196 62.5709 111.942C62.1419 111.688 61.831 111.274 61.7068 110.791C61.5825 110.307 61.655 109.794 61.9084 109.364C62.1617 108.934 62.5751 108.623 63.0576 108.499L109.451 96.5302C109.934 96.4063 110.445 96.4792 110.874 96.733C111.303 96.9869 111.613 97.4008 111.738 97.8839C111.862 98.367 111.789 98.8798 111.536 99.3095C111.283 99.7392 110.87 100.051 110.388 100.175Z" fill="#CCCCCC"/>
<path d="M46.5412 118.075C50.2085 118.075 53.1815 115.097 53.1815 111.423C53.1815 107.749 50.2085 104.771 46.5412 104.771C42.8739 104.771 39.901 107.749 39.901 111.423C39.901 115.097 42.8739 118.075 46.5412 118.075Z" fill="#E6E6E6"/>
<path d="M97.1673 78.5509L45.519 91.8698C44.0264 92.2529 42.443 92.0273 41.1162 91.2423C39.7894 90.4574 38.8277 89.1772 38.4419 87.6828L27.6183 45.5604C27.2359 44.0651 27.4611 42.4788 28.2447 41.1497C29.0282 39.8206 30.306 38.857 31.7978 38.4706L83.4461 25.1516C84.9388 24.7685 86.5222 24.9942 87.8489 25.7791C89.1757 26.5641 90.1375 27.8442 90.5233 29.3387L101.347 71.461C101.729 72.9563 101.504 74.5426 100.72 75.8717C99.9369 77.2009 98.6591 78.1644 97.1673 78.5509Z" fill="white"/>
<path d="M97.1673 78.5509L45.519 91.8698C44.0264 92.2529 42.443 92.0273 41.1162 91.2423C39.7894 90.4574 38.8277 89.1772 38.4419 87.6828L27.6183 45.5604C27.2359 44.0651 27.4611 42.4788 28.2447 41.1497C29.0282 39.8206 30.306 38.857 31.7978 38.4706L83.4461 25.1516C84.9388 24.7685 86.5222 24.9942 87.8489 25.7791C89.1757 26.5641 90.1375 27.8442 90.5233 29.3387L101.347 71.461C101.729 72.9563 101.504 74.5426 100.72 75.8717C99.9369 77.2009 98.6591 78.1644 97.1673 78.5509ZM31.9683 39.1339C30.652 39.4749 29.5245 40.3251 28.8331 41.4979C28.1418 42.6706 27.943 44.0703 28.2805 45.3897L39.104 87.512C39.4444 88.8307 40.2931 89.9602 41.4638 90.6528C42.6344 91.3454 44.0315 91.5445 45.3486 91.2064L96.9969 77.8875C98.3132 77.5465 99.4407 76.6963 100.132 75.5236C100.823 74.3508 101.022 72.9512 100.685 71.6318L89.8611 29.5094C89.5207 28.1908 88.672 27.0613 87.5014 26.3687C86.3307 25.6761 84.9336 25.4769 83.6165 25.815L31.9683 39.1339Z" fill="#E6E6E6"/>
<path d="M80.8259 39.3152L54.7597 46.0371C54.5318 46.1008 54.2883 46.0755 54.0783 45.9662C53.8683 45.857 53.7076 45.6719 53.6286 45.4485C53.5918 45.3318 53.5792 45.2088 53.5914 45.087C53.6037 44.9653 53.6406 44.8473 53.6999 44.7402C53.7591 44.6332 53.8396 44.5394 53.9362 44.4646C54.0329 44.3897 54.1437 44.3354 54.262 44.3049L80.7958 37.4624C81.8677 38.0065 81.586 39.1192 80.8259 39.3152Z" fill="#F2F2F2"/>
<path d="M82.0028 43.8953L55.9366 50.6172C55.7087 50.6809 55.4652 50.6556 55.2552 50.5463C55.0453 50.437 54.8845 50.252 54.8055 50.0286C54.7688 49.9119 54.7561 49.7889 54.7684 49.6671C54.7806 49.5453 54.8175 49.4273 54.8768 49.3203C54.9361 49.2133 55.0165 49.1195 55.1131 49.0446C55.2098 48.9698 55.3207 48.9155 55.439 48.8849L81.9728 42.0425C83.0446 42.5865 82.7629 43.6993 82.0028 43.8953Z" fill="#F2F2F2"/>
<path d="M50.9718 54.6784L43.0167 56.7299C42.7569 56.7966 42.4812 56.7573 42.2503 56.6207C42.0194 56.484 41.8519 56.2612 41.7848 56.0011L39.3683 46.5965C39.3017 46.3362 39.3409 46.0601 39.4773 45.8288C39.6136 45.5974 39.8361 45.4297 40.0958 45.3625L48.0509 43.311C48.3107 43.2444 48.5863 43.2837 48.8172 43.4203C49.0481 43.5569 49.2156 43.7797 49.2828 44.0398L51.6993 53.4444C51.7659 53.7046 51.7267 53.9808 51.5903 54.2121C51.4539 54.4435 51.2315 54.6112 50.9718 54.6784Z" fill="#E6E6E6"/>
<path d="M84.3368 53.2933L44.555 63.5521C44.3271 63.6159 44.0836 63.5906 43.8736 63.4813C43.6637 63.372 43.503 63.187 43.424 62.9636C43.3872 62.8469 43.3745 62.7239 43.3868 62.6021C43.399 62.4803 43.4359 62.3623 43.4952 62.2553C43.5545 62.1483 43.6349 62.0545 43.7316 61.9796C43.8282 61.9048 43.9391 61.8504 44.0574 61.8199L84.3071 51.4404C85.3789 51.9845 85.0969 53.0973 84.3368 53.2933Z" fill="#F2F2F2"/>
<path d="M85.5142 57.8748L45.7323 68.1337C45.5045 68.1974 45.2609 68.1721 45.051 68.0628C44.841 67.9536 44.6803 67.7685 44.6013 67.5451C44.5645 67.4284 44.5519 67.3054 44.5641 67.1836C44.5764 67.0618 44.6132 66.9439 44.6725 66.8368C44.7318 66.7298 44.8122 66.636 44.9089 66.5612C45.0055 66.4863 45.1164 66.432 45.2347 66.4015L85.4844 56.022C86.5563 56.566 86.2742 57.6788 85.5142 57.8748Z" fill="#F2F2F2"/>
<path d="M86.6907 62.454L46.9089 72.7128C46.681 72.7765 46.4374 72.7512 46.2275 72.6419C46.0175 72.5327 45.8568 72.3476 45.7778 72.1242C45.741 72.0075 45.7284 71.8845 45.7406 71.7627C45.7529 71.641 45.7898 71.523 45.849 71.4159C45.9083 71.3089 45.9887 71.2151 46.0854 71.1403C46.182 71.0654 46.2929 71.0111 46.4112 70.9806L86.6609 60.6011C87.7328 61.1451 87.4507 62.258 86.6907 62.454Z" fill="#F2F2F2"/>
<path d="M87.8679 67.035L48.086 77.2938C47.8582 77.3576 47.6146 77.3322 47.4047 77.223C47.1947 77.1137 47.034 76.9287 46.955 76.7053C46.9182 76.5885 46.9056 76.4655 46.9178 76.3438C46.9301 76.222 46.9669 76.104 47.0262 75.997C47.0855 75.89 47.1659 75.7962 47.2626 75.7213C47.3592 75.6465 47.4701 75.5921 47.5884 75.5616L87.8381 65.1821C88.91 65.7262 88.6279 66.839 87.8679 67.035Z" fill="#F2F2F2"/>
<path d="M89.0445 71.6141L49.2627 81.8729C49.0348 81.9367 48.7912 81.9113 48.5813 81.8021C48.3713 81.6928 48.2106 81.5078 48.1316 81.2844C48.0948 81.1676 48.0822 81.0447 48.0944 80.9229C48.1067 80.8011 48.1436 80.6831 48.2028 80.5761C48.2621 80.4691 48.3425 80.3753 48.4392 80.3004C48.5358 80.2256 48.6467 80.1712 48.765 80.1407L89.0148 69.7612C90.0866 70.3053 89.8046 71.4181 89.0445 71.6141Z" fill="#F2F2F2"/>
<path d="M47.0311 113.755C46.8865 113.793 46.7337 113.782 46.5956 113.725L46.587 113.721L44.7781 112.953C44.6941 112.918 44.618 112.866 44.5541 112.801C44.4901 112.735 44.4396 112.658 44.4055 112.574C44.3713 112.489 44.3541 112.398 44.3549 112.307C44.3558 112.216 44.3745 112.126 44.4102 112.041C44.4459 111.957 44.4977 111.881 44.5628 111.817C44.6279 111.753 44.705 111.703 44.7895 111.669C44.8741 111.635 44.9646 111.618 45.0557 111.619C45.1469 111.62 45.237 111.639 45.3208 111.674L46.493 112.174L48.029 108.554C48.0646 108.47 48.1164 108.394 48.1813 108.33C48.2463 108.266 48.3232 108.216 48.4076 108.182C48.492 108.148 48.5823 108.131 48.6734 108.131C48.7644 108.132 48.8544 108.151 48.9381 108.187L48.9291 108.21L48.9388 108.187C49.1078 108.259 49.2414 108.395 49.3101 108.566C49.3788 108.737 49.3771 108.928 49.3053 109.098L47.4983 113.354C47.4564 113.452 47.3925 113.539 47.3115 113.609C47.2306 113.678 47.1348 113.728 47.0315 113.754L47.0311 113.755Z" fill="white"/>
<path d="M158.306 159.645H70.1031C67.112 159.642 64.2444 158.45 62.1294 156.331C60.0144 154.212 58.8247 151.339 58.8214 148.343V44.5701C58.8247 41.5736 60.0144 38.7009 62.1294 36.5821C64.2444 34.4633 67.112 33.2715 70.1031 33.2681H152.162L169.588 47.1828V148.343C169.584 151.339 168.395 154.212 166.28 156.331C164.165 158.45 161.297 159.642 158.306 159.645Z" fill="#E6E6E6"/>
<path d="M70.1031 36.5215C67.9731 36.5239 65.931 37.3726 64.4248 38.8815C62.9187 40.3903 62.0715 42.436 62.0691 44.5699V148.343C62.0715 150.477 62.9187 152.522 64.4248 154.031C65.931 155.54 67.9731 156.389 70.1031 156.391H158.306C160.436 156.389 162.478 155.54 163.984 154.031C165.49 152.522 166.338 150.477 166.34 148.343V48.7501L151.026 36.5215H70.1031Z" fill="white"/>
<path d="M141.151 66.6963H100.993C100.495 66.6963 100.017 66.498 99.6646 66.145C99.3123 65.7921 99.1143 65.3134 99.1143 64.8142C99.1143 64.315 99.3123 63.8363 99.6646 63.4834C100.017 63.1304 100.495 62.9321 100.993 62.9321H141.151C141.649 62.9321 142.127 63.1304 142.479 63.4834C142.831 63.8363 143.029 64.315 143.029 64.8142C143.029 65.3134 142.831 65.7921 142.479 66.145C142.127 66.498 141.649 66.6963 141.151 66.6963Z" fill="#00A7EE"/>
<path d="M148.9 73.0479H100.993C100.495 73.0472 100.018 72.8486 99.6662 72.4957C99.3144 72.1428 99.1168 71.6645 99.1168 71.1658C99.1168 70.667 99.3144 70.1887 99.6662 69.8358C100.018 69.4829 100.495 69.2844 100.993 69.2837H148.9C149.147 69.2834 149.392 69.3318 149.62 69.4262C149.848 69.5207 150.056 69.6592 150.23 69.834C150.405 70.0088 150.544 70.2164 150.638 70.4449C150.733 70.6735 150.782 70.9184 150.782 71.1658C150.782 71.4131 150.733 71.6581 150.638 71.8866C150.544 72.1151 150.405 72.3227 150.23 72.4975C150.056 72.6723 149.848 72.8109 149.62 72.9053C149.392 72.9998 149.147 73.0482 148.9 73.0479Z" fill="#00A7EE"/>
<path d="M141.151 91.3975H100.995C100.496 91.3975 100.018 91.5957 99.6662 91.9487C99.3139 92.3016 99.116 92.7803 99.116 93.2794C99.116 93.7785 99.3139 94.2572 99.6662 94.6102C100.018 94.9631 100.496 95.1614 100.995 95.1614H141.151C141.649 95.1614 142.127 94.9631 142.479 94.6102C142.832 94.2572 143.029 93.7785 143.029 93.2794C143.029 92.7803 142.832 92.3016 142.479 91.9487C142.127 91.5957 141.649 91.3975 141.151 91.3975Z" fill="#CCCCCC"/>
<path d="M148.901 97.7505H100.995C100.496 97.7505 100.018 97.9488 99.6662 98.3017C99.3139 98.6546 99.116 99.1333 99.116 99.6325C99.116 100.132 99.3139 100.61 99.6662 100.963C100.018 101.316 100.496 101.514 100.995 101.514H148.901C149.399 101.514 149.877 101.316 150.229 100.963C150.582 100.61 150.78 100.132 150.78 99.6325C150.78 99.1333 150.582 98.6546 150.229 98.3017C149.877 97.9488 149.399 97.7505 148.901 97.7505Z" fill="#CCCCCC"/>
<path d="M141.151 123.629H100.993C100.495 123.629 100.017 123.431 99.6646 123.078C99.3123 122.725 99.1143 122.246 99.1143 121.747C99.1143 121.248 99.3123 120.769 99.6646 120.416C100.017 120.063 100.495 119.865 100.993 119.865H141.151C141.649 119.865 142.127 120.063 142.479 120.416C142.831 120.769 143.029 121.248 143.029 121.747C143.029 122.246 142.831 122.725 142.479 123.078C142.127 123.431 141.649 123.629 141.151 123.629Z" fill="#CCCCCC"/>
<path d="M148.9 129.981H100.993C100.495 129.98 100.018 129.782 99.6662 129.429C99.3144 129.076 99.1168 128.598 99.1168 128.099C99.1168 127.6 99.3144 127.122 99.6662 126.769C100.018 126.416 100.495 126.217 100.993 126.217H148.9C149.147 126.216 149.392 126.265 149.62 126.359C149.848 126.454 150.056 126.592 150.23 126.767C150.405 126.942 150.544 127.15 150.638 127.378C150.733 127.607 150.782 127.852 150.782 128.099C150.782 128.346 150.733 128.591 150.638 128.82C150.544 129.048 150.405 129.256 150.23 129.431C150.056 129.605 149.848 129.744 149.62 129.838C149.392 129.933 149.147 129.981 148.9 129.981Z" fill="#CCCCCC"/>
<path d="M84.2704 74.6422C87.9377 74.6422 90.9106 71.6639 90.9106 67.99C90.9106 64.3161 87.9377 61.3379 84.2704 61.3379C80.6031 61.3379 77.6302 64.3161 77.6302 67.99C77.6302 71.6639 80.6031 74.6422 84.2704 74.6422Z" fill="#00A7EE"/>
<path d="M83.6124 70.5275C83.463 70.5278 83.3176 70.4794 83.1981 70.3896L83.1906 70.384L81.6301 69.1881C81.5576 69.1327 81.4967 69.0635 81.451 68.9844C81.4052 68.9054 81.3755 68.8181 81.3634 68.7276C81.3514 68.637 81.3573 68.545 81.3808 68.4567C81.4043 68.3684 81.445 68.2857 81.5005 68.2131C81.556 68.1406 81.6252 68.0798 81.7042 68.0342C81.7832 67.9885 81.8704 67.9589 81.9608 67.947C82.0512 67.9351 82.1431 67.9412 82.2312 67.965C82.3192 67.9887 82.4017 68.0297 82.474 68.0854L83.4848 68.8619L85.8733 65.7402C85.9287 65.6678 85.9978 65.6071 86.0766 65.5614C86.1554 65.5158 86.2424 65.4862 86.3327 65.4742C86.4229 65.4623 86.5147 65.4683 86.6026 65.4918C86.6905 65.5154 86.773 65.5561 86.8452 65.6116L86.8306 65.6324L86.8458 65.6117C86.9916 65.724 87.0869 65.8895 87.111 66.0721C87.135 66.2547 87.0858 66.4393 86.9741 66.5856L84.1646 70.2558C84.0996 70.3403 84.016 70.4088 83.9204 70.4557C83.8247 70.5027 83.7195 70.527 83.613 70.5267L83.6124 70.5275Z" fill="white"/>
<path d="M91.5931 96.4559C91.5934 97.3296 91.422 98.1948 91.0885 99.0021C90.755 99.8094 90.266 100.543 89.6495 101.161C89.033 101.779 88.301 102.269 87.4953 102.604C86.6896 102.938 85.8261 103.11 84.954 103.11C84.8969 103.112 84.8398 103.109 84.783 103.104C83.4774 103.07 82.2106 102.651 81.1413 101.9C80.0719 101.149 79.2474 100.099 78.771 98.8804C78.2945 97.6622 78.1873 96.3302 78.4627 95.0512C78.7382 93.7722 79.384 92.603 80.3194 91.6899C81.2549 90.7768 82.4383 90.1603 83.7217 89.9177C85.0051 89.675 86.3315 89.8169 87.5348 90.3256C88.7381 90.8343 89.765 91.6872 90.4868 92.7776C91.2087 93.868 91.5935 95.1475 91.5931 96.4559Z" fill="#CCCCCC"/>
<path d="M84.2704 131.575C87.9377 131.575 90.9106 128.597 90.9106 124.923C90.9106 121.249 87.9377 118.271 84.2704 118.271C80.6031 118.271 77.6302 121.249 77.6302 124.923C77.6302 128.597 80.6031 131.575 84.2704 131.575Z" fill="#CCCCCC"/>
<path d="M169.249 47.6309H155.598C154.601 47.6309 153.646 47.2343 152.941 46.5284C152.236 45.8225 151.841 44.865 151.841 43.8667V33.7665C151.841 33.7223 151.853 33.679 151.876 33.6415C151.9 33.604 151.933 33.574 151.973 33.5547C152.013 33.5355 152.057 33.5278 152.101 33.5327C152.145 33.5375 152.187 33.5546 152.221 33.5821L169.394 47.2112C169.433 47.2416 169.461 47.283 169.474 47.33C169.488 47.3769 169.486 47.4268 169.47 47.473C169.454 47.5191 169.424 47.5591 169.385 47.5874C169.345 47.6157 169.297 47.6309 169.249 47.6309Z" fill="#CCCCCC"/>
<path d="M91.5931 96.456C91.5934 97.3297 91.4219 98.1949 91.0885 99.0022C90.755 99.8095 90.266 100.543 89.6495 101.161C89.033 101.779 88.301 102.269 87.4953 102.604C86.6896 102.938 85.8261 103.11 84.954 103.111C84.8969 103.112 84.8398 103.109 84.783 103.104C83.9252 100.96 83.5945 98.6414 83.8188 96.343C84.0431 94.0446 84.8159 91.8339 86.0719 89.8975C87.6165 90.1627 89.0178 90.9664 90.0281 92.1666C91.0385 93.3668 91.5928 94.8861 91.5931 96.456Z" fill="#00A7EE"/>
<path d="M99.1143 93.2811C99.1152 92.7818 99.3136 92.3032 99.666 91.9502C100.018 91.5971 100.496 91.3984 100.995 91.3975H111.001C111.586 92.5884 112.001 93.8552 112.235 95.1614H100.995C100.497 95.1612 100.019 94.9632 99.6664 94.6107C99.3139 94.2582 99.1153 93.7801 99.1143 93.2811Z" fill="#00A7EE"/>
<path d="M112.468 97.7505C112.468 99.0217 112.301 100.287 111.969 101.514H100.995C100.496 101.514 100.018 101.316 99.6662 100.963C99.3139 100.61 99.116 100.132 99.116 99.6325C99.116 99.1333 99.3139 98.6546 99.6662 98.3017C100.018 97.9488 100.496 97.7505 100.995 97.7505H112.468Z" fill="#00A7EE"/>
<path d="M137.227 120.963C136.943 121.428 136.487 121.762 135.959 121.89C135.43 122.018 134.872 121.931 134.407 121.647L110.475 107.023C110.245 106.883 110.045 106.698 109.886 106.48C109.727 106.262 109.613 106.015 109.549 105.753C109.486 105.49 109.475 105.218 109.516 104.952C109.558 104.685 109.651 104.429 109.792 104.199C109.932 103.968 110.116 103.768 110.334 103.609C110.551 103.45 110.798 103.335 111.06 103.272C111.322 103.208 111.593 103.197 111.86 103.239C112.126 103.28 112.381 103.374 112.611 103.514L136.544 118.139C137.008 118.422 137.341 118.879 137.469 119.409C137.597 119.939 137.51 120.498 137.227 120.963Z" fill="#3F3D56"/>
<path d="M113.294 106.339C111.604 109.115 109.13 111.326 106.186 112.694C103.241 114.061 99.9578 114.523 96.7511 114.021C93.5445 113.519 90.5584 112.075 88.1706 109.873C85.7827 107.671 84.1004 104.809 83.3362 101.649C82.572 98.4894 82.7603 95.1733 83.8774 92.1206C84.9944 89.0679 86.99 86.4155 89.6118 84.499C92.2336 82.5824 95.3638 81.4878 98.6065 81.3534C101.849 81.219 105.059 82.051 107.83 83.7441C111.542 86.0179 114.201 89.6738 115.226 93.9097C116.25 98.1457 115.555 102.616 113.294 106.339ZM88.7776 91.3582C87.5101 93.4401 86.8872 95.8517 86.9878 98.2881C87.0884 100.725 87.9079 103.076 89.3428 105.046C90.7776 107.016 92.7633 108.516 95.0488 109.355C97.3342 110.194 99.8168 110.336 102.182 109.761C104.548 109.187 106.691 107.923 108.34 106.129C109.988 104.335 111.069 102.092 111.444 99.6822C111.82 97.2729 111.475 94.8061 110.451 92.5937C109.427 90.3812 107.772 88.5226 105.694 87.2528C102.906 85.5537 99.5595 85.0318 96.3882 85.8014C93.2169 86.5711 90.4799 88.5695 88.7776 91.3582Z" fill="#3F3D56"/>
</svg>
