<svg width="240" height="180" viewBox="0 0 240 180" fill="none" xmlns="http://www.w3.org/2000/svg">
<g clip-path="url(#clip0_2080_4983)">
<path d="M175.247 170.435H170.472L168.199 152.016H175.247V170.435Z" fill="#9E616A"/>
<path d="M177.768 178.709H174.343L173.732 175.475L172.166 178.709H163.083C162.648 178.709 162.224 178.569 161.873 178.311C161.523 178.053 161.264 177.69 161.134 177.275C161.004 176.859 161.011 176.413 161.153 176.001C161.295 175.59 161.565 175.234 161.923 174.987L169.176 169.977V166.709L176.806 167.164L177.768 178.709Z" fill="#2F2E41"/>
<path d="M203.618 164.408L199.785 167.258L186.971 153.833L192.627 149.628L203.618 164.408Z" fill="#9E616A"/>
<path d="M210.577 169.544L207.829 171.587L205.409 169.357L206.082 172.886L198.794 178.306C198.444 178.566 198.021 178.707 197.586 178.709C197.15 178.712 196.726 178.575 196.374 178.318C196.022 178.062 195.761 177.7 195.629 177.285C195.498 176.87 195.502 176.424 195.642 176.012L198.473 167.664L196.523 165.041L202.916 160.854L210.577 169.544Z" fill="#2F2E41"/>
<path d="M180.807 75.4021C180.807 75.4021 189.867 83.2299 185.687 105.545L180.583 127.41L197.228 155.023L191.921 161.479L170.283 131.592L162.442 113.199L160.241 80.4641L180.807 75.4021Z" fill="#2F2E41"/>
<path d="M166.763 118.44L166.218 126.88L167.886 162.846L175.734 161.479L177.234 135.872L166.763 118.44Z" fill="#2F2E41"/>
<path d="M66.0561 174.765L70.3267 174.765L72.3581 158.293L66.0555 158.294L66.0561 174.765Z" fill="#FFB6B6"/>
<path d="M64.9668 173.371L66.1688 173.371L70.8616 171.463L73.3769 173.371H73.3772C74.7986 173.371 76.1618 173.936 77.1669 174.941C78.172 175.946 78.7367 177.309 78.7368 178.73V178.904L64.967 178.905L64.9668 173.371Z" fill="#2F2E41"/>
<path d="M82.6051 172.074L86.7705 173.015L92.3806 157.395L86.2328 156.007L82.6051 172.074Z" fill="#FFB6B6"/>
<path d="M81.8496 170.474L83.0221 170.739L88.02 169.911L90.0532 172.326L90.0535 172.327C91.44 172.64 92.6453 173.491 93.4043 174.693C94.1633 175.894 94.4138 177.348 94.1008 178.735L94.0625 178.905L80.6309 175.872L81.8496 170.474Z" fill="#2F2E41"/>
<path d="M60.6475 74.0657C58.6453 80.1043 58.857 86.659 61.1288 93.694L62.0999 133.303C62.0999 133.303 60.653 159.278 65.322 168.418H72.0932L75.4458 130.931L75.8668 105.769L90.3837 126.997L81.1375 167.805L89.4713 168.55L104.476 124.264L85.9633 81.2988L60.6475 74.0657Z" fill="#2F2E41"/>
<path d="M138.735 56.8652C143.915 52.1981 151.618 49.8513 158.08 52.4683C151.452 56.1485 146.338 62.0547 143.645 69.1419C142.616 71.879 141.757 75.0303 139.227 76.4956C137.653 77.4074 135.694 77.452 133.929 77.0118C132.163 76.5716 130.545 75.6892 128.949 74.8157L128.495 74.8054C130.534 68.1382 133.556 61.5324 138.735 56.8652Z" fill="#E6E6E6"/>
<path d="M158.044 52.6103C152.321 53.3499 146.976 55.874 142.769 59.824C141.849 60.6583 141.065 61.6325 140.448 62.7108C139.88 63.7806 139.61 64.9828 139.664 66.1926C139.692 67.3216 139.851 68.4732 139.604 69.5894C139.469 70.1588 139.216 70.6933 138.86 71.1578C138.504 71.6223 138.054 72.0064 137.539 72.2847C136.274 73.0116 134.824 73.2408 133.398 73.4156C131.814 73.6097 130.166 73.7862 128.796 74.6744C128.63 74.782 128.472 74.518 128.638 74.4105C131.023 72.8653 134.041 73.4275 136.605 72.3962C137.801 71.915 138.86 71.0703 139.235 69.7931C139.563 68.6763 139.399 67.4886 139.361 66.3457C139.291 65.1663 139.51 63.9876 140.001 62.9127C140.561 61.8065 141.306 60.8037 142.203 59.9473C144.191 57.9871 146.476 56.3518 148.972 55.1012C151.814 53.6581 154.881 52.7117 158.041 52.303C158.237 52.2778 158.238 52.5852 158.044 52.6103Z" fill="white"/>
<path d="M144.049 58.4723C143.482 57.6765 143.217 56.7051 143.3 55.7316C143.383 54.7581 143.81 53.8458 144.503 53.1577C144.644 53.019 144.866 53.2313 144.725 53.3703C144.078 54.0098 143.681 54.8596 143.605 55.7663C143.53 56.6731 143.781 57.5769 144.313 58.3148C144.429 58.4753 144.164 58.6319 144.049 58.4723Z" fill="white"/>
<path d="M139.574 65.622C141.541 65.9704 143.567 65.5648 145.248 64.486C145.414 64.379 145.572 64.6429 145.405 64.7498C143.654 65.8692 141.545 66.287 139.499 65.9199C139.304 65.8848 139.381 65.5871 139.574 65.622Z" fill="white"/>
<path d="M151.839 54.0646C151.994 54.4182 152.234 54.7277 152.539 54.9654C152.843 55.2031 153.202 55.3614 153.582 55.4262C153.778 55.4588 153.701 55.7565 153.507 55.7241C153.087 55.6506 152.691 55.4752 152.354 55.2134C152.017 54.9516 151.75 54.6112 151.575 54.2221C151.555 54.1868 151.55 54.1454 151.56 54.1063C151.57 54.0671 151.594 54.0332 151.628 54.0114C151.663 53.9908 151.705 53.9847 151.744 53.9947C151.784 54.0046 151.818 54.0298 151.839 54.0646Z" fill="white"/>
<path d="M165.196 74.9756C165.073 74.9587 164.951 74.9418 164.826 74.9268C163.178 74.708 161.514 74.6235 159.852 74.6741C159.723 74.676 159.593 74.6798 159.465 74.6854C155.461 74.85 151.523 75.7565 147.85 77.3588C146.389 77.9978 144.979 78.747 143.632 79.5999C141.771 80.7778 139.848 82.2031 137.768 82.6835C137.551 82.7361 137.332 82.7752 137.111 82.8006L128.518 75.3602C128.507 75.3334 128.494 75.3086 128.483 75.2818L128.126 75.0004C128.192 74.9516 128.262 74.9024 128.329 74.8535C128.367 74.825 128.407 74.7982 128.446 74.7697C128.472 74.7512 128.498 74.7328 128.521 74.7147C128.53 74.7085 128.538 74.7024 128.545 74.6982C128.568 74.68 128.591 74.6655 128.612 74.6493C129.002 74.3731 129.395 74.0991 129.79 73.8274C129.792 73.8254 129.792 73.8254 129.795 73.8251C132.788 71.7258 136.019 69.9889 139.421 68.6508C139.523 68.6123 139.627 68.5717 139.733 68.5365C141.265 67.9669 142.841 67.5234 144.445 67.2105C145.324 67.042 146.211 66.9181 147.103 66.8393C149.407 66.6401 151.728 66.8045 153.981 67.3266C158.472 68.3679 162.58 70.834 165.013 74.68C165.075 74.7784 165.135 74.8753 165.196 74.9756Z" fill="#E6E6E6"/>
<path d="M165.082 75.068C160.067 72.2128 154.28 71.0104 148.543 71.6314C147.306 71.7432 146.093 72.0493 144.951 72.5385C143.854 73.0511 142.914 73.848 142.229 74.8466C141.572 75.7649 141.006 76.7804 140.136 77.5229C139.686 77.8963 139.162 78.1703 138.598 78.3269C138.034 78.4835 137.443 78.5191 136.865 78.4314C135.417 78.2504 134.121 77.5601 132.877 76.8411C131.496 76.0427 130.074 75.1915 128.445 75.0754C128.247 75.0613 128.281 74.7559 128.478 74.7699C131.312 74.9719 133.383 77.2377 136.052 77.9581C137.297 78.2943 138.651 78.2573 139.719 77.4631C140.653 76.7687 141.238 75.7221 141.895 74.7865C142.549 73.8026 143.434 72.9937 144.473 72.4305C145.586 71.8848 146.785 71.5324 148.016 71.3887C150.784 71.0208 153.593 71.0904 156.339 71.595C159.477 72.1535 162.495 73.2445 165.265 74.821C165.436 74.9186 165.252 75.1651 165.082 75.068Z" fill="white"/>
<path d="M150.379 71.3227C150.405 70.3459 150.778 69.4104 151.43 68.6832C152.083 67.956 152.973 67.4844 153.941 67.3527C154.137 67.3267 154.187 67.63 153.99 67.656C153.089 67.777 152.26 68.2164 151.653 68.8948C151.047 69.5733 150.703 70.4461 150.684 71.3557C150.68 71.5534 150.374 71.5192 150.379 71.3227Z" fill="white"/>
<path d="M142.501 74.3373C143.862 75.7996 145.723 76.6954 147.715 76.846C147.912 76.8608 147.879 77.1663 147.682 77.1515C145.61 76.9909 143.674 76.0547 142.262 74.5299C142.127 74.3845 142.367 74.1926 142.501 74.3373Z" fill="white"/>
<path d="M159.252 72.4932C159.163 72.869 159.168 73.261 159.268 73.634C159.368 74.007 159.559 74.3494 159.824 74.6303C159.961 74.774 159.72 74.9657 159.585 74.823C159.294 74.5112 159.083 74.1329 158.972 73.721C158.86 73.3091 158.852 72.8762 158.946 72.4602C158.952 72.4202 158.972 72.3839 159.004 72.3586C159.035 72.3333 159.075 72.3209 159.115 72.3239C159.156 72.3285 159.193 72.3489 159.218 72.3806C159.244 72.4123 159.256 72.4528 159.252 72.4932Z" fill="white"/>
<path d="M14.264 174.466C13.8606 175.98 12.8007 177.24 11.521 178.158C11.3123 178.308 11.0981 178.447 10.8811 178.578C10.8143 178.617 10.7476 178.659 10.678 178.695C10.6029 178.739 10.5278 178.781 10.4527 178.82H4.43533C4.32683 178.6 4.22112 178.378 4.1154 178.158C1.53653 172.739 -0.274519 166.891 0.0342782 160.935C0.156789 158.625 0.64215 156.348 1.47255 154.189C3.12503 149.885 6.14066 146.16 10.2886 144.285C10.3915 144.238 10.5 144.19 10.6057 144.146C10.5723 144.265 10.5389 144.382 10.5055 144.502C10.0605 146.105 9.74609 147.741 9.56525 149.395C9.54856 149.523 9.53465 149.651 9.52352 149.782C9.1283 153.771 9.47924 157.798 10.5584 161.658C10.5612 161.666 10.564 161.678 10.5668 161.686C10.8032 162.54 11.0777 163.381 11.3902 164.209C11.635 164.863 11.8993 165.508 12.1886 166.143C13.396 168.805 15.0151 171.643 14.264 174.466Z" fill="#E6E6E6"/>
<path d="M10.6809 144.271C10.6224 144.349 10.564 144.424 10.5056 144.502C9.28371 146.121 8.24613 147.872 7.41206 149.721C7.36755 149.813 7.32582 149.904 7.28966 149.999C6.14682 152.581 5.41287 155.325 5.11417 158.133C5.11093 158.153 5.10908 158.172 5.10861 158.192C5.03906 158.848 4.99733 159.51 4.98063 160.173C4.91877 161.414 5.05303 162.657 5.37845 163.856C5.67518 164.835 6.19514 165.732 6.8974 166.477C6.96695 166.552 7.0365 166.627 7.11161 166.699C7.16725 166.757 7.22845 166.816 7.28687 166.872C7.84883 167.408 8.46364 167.906 8.99221 168.482C9.23448 168.741 9.45327 169.02 9.64597 169.317C9.95352 169.815 10.1522 170.372 10.2289 170.952C10.3056 171.532 10.2586 172.122 10.0911 172.683C9.71274 174.091 8.84755 175.279 7.96289 176.411C7.52056 176.978 7.06432 177.551 6.66928 178.158C6.52463 178.375 6.39109 178.595 6.2687 178.82H5.91817C6.03501 178.595 6.16298 178.375 6.30208 178.158C7.31749 176.558 8.76133 175.184 9.50967 173.423C10.016 172.235 10.169 170.889 9.52915 169.723C9.34162 169.384 9.11471 169.068 8.85313 168.783C8.34403 168.207 7.73479 167.714 7.18118 167.194C7.04208 167.064 6.90576 166.93 6.77501 166.791C6.0818 166.087 5.54688 165.242 5.20599 164.315C4.81993 163.137 4.63742 161.902 4.66629 160.662C4.66629 159.872 4.70802 159.077 4.78592 158.286C4.79426 158.186 4.80539 158.083 4.81652 157.98C5.38544 153.009 7.27486 148.28 10.2886 144.285C10.3443 144.207 10.4027 144.132 10.4611 144.057C10.5807 143.901 10.8005 144.118 10.6809 144.271Z" fill="white"/>
<path d="M4.92874 158.313C3.96515 158.151 3.09047 157.652 2.4609 156.905C1.83133 156.158 1.48787 155.211 1.49186 154.234C1.49239 154.194 1.50836 154.156 1.53642 154.128C1.56447 154.099 1.60242 154.083 1.64225 154.082C1.68209 154.081 1.72071 154.096 1.74997 154.123C1.77924 154.15 1.79686 154.187 1.79914 154.227C1.79375 155.137 2.11377 156.019 2.70145 156.713C3.28912 157.408 4.10574 157.87 5.00391 158.015C5.19905 158.047 5.12277 158.344 4.92874 158.313Z" fill="white"/>
<path d="M6.82016 166.532C8.45723 165.388 9.60287 163.669 10.0286 161.717C10.0707 161.524 10.3685 161.599 10.3266 161.793C9.87973 163.823 8.68389 165.609 6.97769 166.796C6.81499 166.909 6.65834 166.645 6.82016 166.532Z" fill="white"/>
<path d="M7.31998 149.688C7.67977 149.829 8.06876 149.877 8.45204 149.83C8.83533 149.783 9.20089 149.641 9.5159 149.418C9.67709 149.303 9.83356 149.568 9.67342 149.682C9.32424 149.927 8.92032 150.083 8.49696 150.136C8.07361 150.189 7.64371 150.138 7.24481 149.986C7.20601 149.975 7.1729 149.95 7.15221 149.915C7.13153 149.88 7.12481 149.839 7.13342 149.8C7.14357 149.76 7.16887 149.727 7.2038 149.706C7.23873 149.685 7.28048 149.679 7.31998 149.688Z" fill="white"/>
<path d="M31.5511 155.029C31.4537 155.104 31.3535 155.179 31.2562 155.257C29.9354 156.268 28.6989 157.384 27.5589 158.595C27.4699 158.687 27.3809 158.782 27.2947 158.876L27.2919 158.879C24.5889 161.813 22.4517 165.222 20.988 168.933L20.9796 168.958C20.9768 168.966 20.9741 168.972 20.9713 168.98C20.3911 170.466 19.9233 171.993 19.572 173.548C19.2326 175.067 18.9544 176.695 18.423 178.158C18.3423 178.383 18.2533 178.606 18.1587 178.82H5.79016C5.83189 178.6 5.8764 178.378 5.92091 178.158C6.55009 174.934 7.53345 171.79 8.85309 168.783C8.8976 168.683 8.94211 168.582 8.99219 168.482C9.67344 166.996 10.4745 165.568 11.3874 164.212L11.3876 164.211L11.3882 164.21L11.3892 164.209L11.3902 164.209C11.8915 163.469 12.4301 162.755 13.0038 162.07C14.4916 160.3 16.2491 158.775 18.2116 157.552C18.2227 157.544 18.2366 157.538 18.2477 157.53C22.1536 155.107 26.7828 153.952 31.2089 154.951H31.2117C31.3257 154.976 31.437 155.001 31.5511 155.029Z" fill="#E6E6E6"/>
<path d="M31.5372 155.176C31.4426 155.201 31.348 155.229 31.2562 155.257C29.3065 155.814 27.4246 156.586 25.645 157.558C25.556 157.605 25.4669 157.655 25.3779 157.705C22.9186 159.078 20.6861 160.822 18.7596 162.877C18.7581 162.878 18.7572 162.88 18.7569 162.882C18.7346 162.905 18.7096 162.93 18.6901 162.952C18.245 163.43 17.8166 163.928 17.4104 164.44C16.6159 165.395 15.9757 166.468 15.5131 167.62C15.1596 168.581 15.0348 169.61 15.1487 170.627C15.157 170.73 15.1709 170.83 15.1848 170.933C15.196 171.014 15.2071 171.095 15.221 171.178C15.4046 172.294 15.7218 173.412 15.6327 174.55C15.5786 175.133 15.4016 175.698 15.1134 176.207C14.8252 176.717 14.4324 177.16 13.9608 177.507C13.6402 177.755 13.2975 177.973 12.937 178.158C12.4216 178.424 11.8847 178.645 11.3318 178.82H10.2385C10.386 178.778 10.5306 178.737 10.6781 178.695C11.2013 178.547 11.715 178.368 12.2165 178.158C12.503 178.038 12.7817 177.901 13.0511 177.746C14.1694 177.104 15.1014 176.119 15.2961 174.803C15.4658 173.651 15.1375 172.5 14.9428 171.373C14.9094 171.178 14.8788 170.986 14.8621 170.794C14.7293 169.819 14.81 168.826 15.0986 167.884C15.4989 166.71 16.0973 165.613 16.8679 164.641C17.3446 164.007 17.8535 163.399 18.3924 162.818C18.4592 162.743 18.5287 162.668 18.6011 162.593C20.5681 160.524 22.8392 158.767 25.3362 157.382H25.339C27.1956 156.349 29.1652 155.533 31.2089 154.951H31.2117C31.3035 154.923 31.3981 154.895 31.4899 154.87C31.6818 154.82 31.7263 155.123 31.5372 155.176Z" fill="white"/>
<path d="M18.4909 162.924C17.819 162.215 17.4211 161.289 17.3683 160.314C17.3155 159.338 17.6113 158.375 18.2027 157.598C18.3229 157.441 18.5725 157.62 18.4521 157.777C17.9 158.501 17.6246 159.397 17.6756 160.306C17.7267 161.214 18.1007 162.074 18.7303 162.731C18.867 162.874 18.6268 163.066 18.4909 162.924Z" fill="white"/>
<path d="M15.0524 170.625C17.0484 170.697 18.9983 170.014 20.5131 168.713C20.6631 168.583 20.8556 168.823 20.7058 168.952C19.1269 170.304 17.0963 171.01 15.0193 170.931C14.8214 170.923 14.8555 170.618 15.0524 170.625Z" fill="white"/>
<path d="M25.5928 157.477C25.7956 157.806 26.0768 158.079 26.4112 158.272C26.7457 158.465 27.1228 158.572 27.5088 158.583C27.7068 158.589 27.6724 158.894 27.4758 158.889C27.0493 158.874 26.633 158.756 26.263 158.543C25.893 158.331 25.5807 158.031 25.3534 157.67C25.3291 157.638 25.318 157.597 25.3223 157.557C25.3267 157.517 25.3461 157.48 25.3768 157.454C25.4086 157.428 25.4491 157.417 25.4896 157.421C25.53 157.425 25.5671 157.446 25.5928 157.477Z" fill="white"/>
<path d="M126.963 48.1638C126.678 48.5394 126.314 48.8478 125.896 49.0673C125.478 49.2868 125.018 49.412 124.546 49.4342C124.075 49.4565 123.605 49.3751 123.168 49.1958C122.732 49.0166 122.34 48.7439 122.021 48.3968L111.505 52.9704L112.529 47.1L122.358 43.6569C122.977 43.1587 123.757 42.9047 124.55 42.943C125.343 42.9813 126.095 43.3093 126.663 43.8649C127.23 44.4204 127.574 45.1649 127.63 45.9572C127.685 46.7495 127.448 47.5347 126.963 48.1638Z" fill="#FFB8B8"/>
<path d="M119.946 49.9967L95.521 60.8765L95.4686 60.8577L67.6305 50.9376C65.5569 49.8539 63.976 48.0185 63.2115 45.8073C62.4471 43.596 62.5568 41.1762 63.5183 39.0432C64.0512 37.8647 64.8277 36.8124 65.7967 35.9557C66.7656 35.0989 67.905 34.4571 69.1399 34.0724C70.3748 33.6877 71.6771 33.569 72.9612 33.7239C74.2453 33.8789 75.482 34.304 76.5899 34.9714L97.3067 47.451L117.396 44.8474L119.946 49.9967Z" fill="#E6E6E6"/>
<path d="M240 179.045C240 179.089 239.992 179.132 239.975 179.172C239.958 179.212 239.934 179.249 239.903 179.28C239.873 179.311 239.836 179.335 239.796 179.352C239.756 179.368 239.712 179.377 239.669 179.376H0.340326C0.252526 179.376 0.168324 179.342 0.10624 179.279C0.0441555 179.217 0.00927734 179.133 0.00927734 179.045C0.00927734 178.958 0.0441555 178.873 0.10624 178.811C0.168324 178.749 0.252526 178.714 0.340326 178.714H239.669C239.712 178.714 239.756 178.723 239.796 178.739C239.836 178.756 239.873 178.78 239.903 178.811C239.934 178.842 239.958 178.878 239.975 178.919C239.992 178.959 240 179.002 240 179.045Z" fill="#CCCCCC"/>
<path d="M87.1708 82.5675L62.5489 78.6292C61.9031 78.4223 61.3097 78.0782 60.8095 77.6204C60.3093 77.1627 59.9141 76.6021 59.651 75.9771C59.3878 75.3522 59.2631 74.6777 59.2852 74C59.3074 73.3223 59.4759 72.6574 59.7793 72.051L60.8958 69.8175L60.4621 46.3527C60.4098 43.3004 61.1623 40.2883 62.6438 37.6192C64.1253 34.9502 66.2836 32.7183 68.9016 31.1482L71.3026 29.7126L72.5161 26.6311L83.7051 26.904L83.7377 30.9454L87.7448 37.3351L87.7447 37.3616L87.4932 72.1398L86.3889 75.7289L88.0587 79.9035L87.1708 82.5675Z" fill="#E6E6E6"/>
<path d="M79.1352 22.7994C84.7499 22.7994 89.3016 18.2477 89.3016 12.633C89.3016 7.01821 84.7499 2.46655 79.1352 2.46655C73.5204 2.46655 68.9688 7.01821 68.9688 12.633C68.9688 18.2477 73.5204 22.7994 79.1352 22.7994Z" fill="#FFB8B8"/>
<path d="M68.5489 14.8492C68.2456 13.5717 68.3848 11.7742 68.5562 10.4879C69.0054 7.11583 70.8781 3.91006 73.7232 2.01117C74.2627 1.60144 74.9037 1.34669 75.5773 1.27439C76.2503 1.24629 76.9799 1.6066 77.1865 2.24779C77.3561 1.8246 77.6106 1.44065 77.9343 1.11965C78.258 0.798636 78.6441 0.547376 79.0687 0.381377C79.9216 0.0545964 80.8389 -0.0689842 81.7479 0.0204309C83.5098 0.16566 85.1995 0.785179 86.6377 1.81324C88.0759 2.8413 89.2089 4.23955 89.9166 5.8596C90.1881 6.50468 90.9466 4.12194 91.2906 4.73144C91.6068 5.36499 92.1584 5.84963 92.8273 6.08164C93.5015 6.26976 93.7753 9.0473 94.0406 8.39963C94.2464 8.87827 94.3278 9.40123 94.2771 9.91979C94.2264 10.4383 94.0453 10.9356 93.7507 11.3654C93.456 11.7951 93.0574 12.1433 92.592 12.3775C92.1266 12.6117 91.6094 12.7242 91.0888 12.7048C90.4026 12.6791 89.7465 12.4267 89.0685 12.3181C86.644 11.9296 84.0721 13.6877 83.5538 16.0878C83.3683 15.3937 83.0718 14.7341 82.6759 14.1346C82.475 13.8364 82.2057 13.5905 81.8906 13.4173C81.5754 13.2441 81.2235 13.1487 80.864 13.139C80.1742 13.1648 79.5679 13.6158 79.1203 14.1413C78.6727 14.6669 78.3366 15.28 77.8857 15.8027C76.5628 17.3364 74.7734 20.913 72.8881 20.6522C71.4002 20.4463 68.9629 16.5933 68.5489 14.8492Z" fill="#2F2E41"/>
<path d="M140.59 59.6841C140.661 59.2206 140.566 58.7469 140.321 58.347C140.076 57.947 139.698 57.6467 139.253 57.4992L111.874 48.3808C111.612 48.293 111.334 48.2611 111.059 48.2871L104.196 48.936L100.259 49.3095L92.9927 49.9962C92.554 50.0382 92.1416 50.2246 91.8202 50.5261C91.4988 50.8277 91.2866 51.2274 91.2168 51.6625L87.5276 74.7076C87.4578 75.1571 87.5433 75.6169 87.7702 76.0112C87.997 76.4055 88.3515 76.7107 88.7751 76.8763L116.439 87.5547C116.569 87.6051 116.704 87.6413 116.841 87.6628C117.042 87.6952 117.246 87.6968 117.447 87.6673L135.322 85.0179C135.744 84.9569 136.135 84.7616 136.436 84.461C136.738 84.1603 136.935 83.7704 136.998 83.349L140.59 59.6841Z" fill="white"/>
<path d="M89.4022 75.2526L117.066 85.9304C117.106 85.9464 117.15 85.9515 117.193 85.9454L135.066 83.2963C135.119 83.2891 135.169 83.2647 135.206 83.227C135.244 83.1892 135.269 83.1402 135.276 83.0872L138.871 59.422C138.879 59.3643 138.867 59.3054 138.836 59.2556C138.806 59.2058 138.759 59.1681 138.704 59.149L138.52 59.0867L111.324 50.0326C111.312 50.0282 111.299 50.0251 111.286 50.0234C111.265 50.0195 111.243 50.0184 111.222 50.02L94.4844 51.6039L93.1562 51.7285C93.1017 51.7343 93.0506 51.7578 93.0107 51.7953C92.9708 51.8329 92.9443 51.8825 92.9351 51.9365L89.2465 74.9807C89.2375 75.037 89.2481 75.0946 89.2764 75.1441C89.3047 75.1936 89.3491 75.2319 89.4022 75.2526Z" fill="#00A7EE"/>
<path d="M94.4845 51.6039L111.222 50.02C111.243 50.0184 111.265 50.0195 111.286 50.0234C111.299 50.0251 111.312 50.0282 111.324 50.0326L138.52 59.0867L131.346 59.8461L128.661 60.1289L121.022 60.936C121 60.9371 120.977 60.9369 120.955 60.9352C120.941 60.9311 120.928 60.927 120.912 60.9227L94.4845 51.6039Z" fill="#2F2E41"/>
<path d="M88.7747 76.8779L116.438 87.5557C116.569 87.6059 116.704 87.6413 116.842 87.6614C117.042 87.6945 117.247 87.697 117.448 87.6689L135.321 85.0199C135.743 84.9585 136.134 84.7629 136.436 84.4621C136.738 84.1613 136.935 83.7712 136.998 83.3496L140.589 59.6842C140.643 59.3353 140.602 58.9786 140.473 58.6502C140.455 58.6066 140.437 58.5629 140.415 58.5218C140.273 58.222 140.056 57.9636 139.786 57.7713C139.623 57.6544 139.443 57.5628 139.253 57.4996L139.22 57.4881L111.876 48.3807C111.764 48.3451 111.65 48.3174 111.535 48.2978C111.377 48.2754 111.216 48.2723 111.058 48.2886L104.196 48.9353L100.259 49.3108L92.992 49.997C92.6947 50.0247 92.4075 50.1196 92.1522 50.2745C92.1325 50.284 92.1136 50.2953 92.0959 50.3082C92.0832 50.3165 92.0712 50.3256 92.0598 50.3355C91.8368 50.4877 91.6472 50.6837 91.5024 50.9115C91.3576 51.1393 91.2608 51.3943 91.2177 51.6607L87.5261 74.7074C87.4563 75.1573 87.542 75.6175 87.769 76.0121C87.996 76.4067 88.3507 76.7121 88.7747 76.8779ZM91.7075 51.7411C91.7523 51.4648 91.8748 51.2071 92.0607 50.9979C92.117 50.9306 92.18 50.8692 92.2487 50.8147C92.4364 50.6629 92.6583 50.5594 92.8951 50.5131C92.9419 50.5035 92.9892 50.4968 93.0368 50.4931L105.273 49.3372L111.105 48.7822C111.145 48.7776 111.181 48.7782 111.218 48.7761C111.306 48.7743 111.394 48.7809 111.481 48.7957C111.561 48.8061 111.64 48.8249 111.716 48.8517L139.093 57.9706C139.115 57.9783 139.134 57.9857 139.155 57.9933C139.404 58.0859 139.623 58.2451 139.788 58.4534C139.918 58.6129 140.013 58.798 140.067 58.9967C140.12 59.1955 140.131 59.4033 140.099 59.6066L136.505 83.2746C136.458 83.5902 136.31 83.8823 136.085 84.1078C135.859 84.3333 135.566 84.4802 135.251 84.5269L117.375 87.1757C117.119 87.2123 116.858 87.1826 116.617 87.0893L88.9531 76.4143C88.636 76.2894 88.3708 76.0603 88.201 75.7648C88.0312 75.4693 87.9669 75.1249 88.0186 74.788L91.7075 51.7411Z" fill="#3F3D56"/>
<path d="M92.0003 50.4611C92.0149 50.4192 92.0407 50.3821 92.0748 50.3537C92.0862 50.3446 92.0982 50.3364 92.1107 50.3292C92.1223 50.3247 92.1342 50.3174 92.1458 50.313C92.2013 50.2906 92.2631 50.2896 92.3194 50.31L92.8952 50.5131L121.025 60.4362L127.609 59.7406L131.293 59.352L139.09 58.5265L139.788 58.4534L139.923 58.4384C139.982 58.4331 140.04 58.4483 140.088 58.4815C140.137 58.5147 140.172 58.5638 140.188 58.6202C140.192 58.6332 140.194 58.6465 140.195 58.66C140.201 58.7136 140.189 58.7676 140.162 58.8138C140.134 58.8601 140.092 58.8961 140.042 58.9165C140.02 58.9256 139.997 58.9319 139.974 58.9351L139.025 59.0345L131.346 59.8462L128.661 60.129L121.022 60.9361C121 60.9372 120.977 60.937 120.955 60.9353C120.941 60.9312 120.928 60.9271 120.912 60.9228L92.2488 50.8146L92.1514 50.7802C92.1291 50.7729 92.1084 50.7614 92.0904 50.7464C92.047 50.7146 92.0149 50.6698 91.9987 50.6185C91.9825 50.5672 91.9831 50.5121 92.0003 50.4611Z" fill="#3F3D56"/>
<path d="M116.917 87.7338C116.853 87.7234 116.795 87.6879 116.756 87.635C116.717 87.5821 116.701 87.516 116.711 87.4512L120.749 60.6515C120.759 60.5863 120.794 60.5277 120.848 60.4885C120.901 60.4494 120.967 60.4329 121.032 60.4427L121.034 60.4431C121.099 60.4534 121.157 60.4889 121.196 60.5419C121.235 60.5948 121.251 60.6608 121.241 60.7256L117.202 87.5254C117.193 87.5905 117.157 87.6492 117.104 87.6883C117.051 87.7275 116.985 87.744 116.92 87.7341L116.917 87.7338Z" fill="#3F3D56"/>
<path d="M127.154 86.0336L124.468 86.317L127.61 59.7397C127.61 59.7397 131.197 59.0902 131.293 59.3507C131.352 59.5062 127.18 85.8631 127.154 86.0336Z" fill="#3F3D56"/>
<path d="M92.1522 50.7798L92.0798 62.8999L113.536 71.0755L121.241 60.7255L92.1522 50.7798Z" fill="#3F3D56"/>
<path d="M139.788 58.4539C139.609 58.2284 139.368 58.0605 139.094 57.9708L111.718 48.8522C111.641 48.8263 111.562 48.8071 111.482 48.7947C111.395 48.7797 111.306 48.7731 111.217 48.7749L111.262 48.4974L111.536 48.299L118.037 43.5923L139.747 50.2459L139.785 57.7715L139.788 58.4539Z" fill="#3F3D56"/>
<path d="M93.2457 70.2367C93.2766 70.2397 93.307 70.2461 93.3364 70.2558L101.736 73.0146C101.841 73.0491 101.928 73.124 101.978 73.2227C102.028 73.3215 102.037 73.4361 102.003 73.5412C101.968 73.6464 101.893 73.7335 101.794 73.7835C101.696 73.8335 101.581 73.8421 101.476 73.8076L93.0761 71.0488C92.9786 71.0168 92.8963 70.9499 92.845 70.861C92.7937 70.7721 92.7769 70.6674 92.7979 70.567C92.8189 70.4665 92.8761 70.3773 92.9587 70.3163C93.0414 70.2554 93.1435 70.2271 93.2457 70.2367Z" fill="white"/>
<path d="M127.136 121.08C128.98 121.08 130.475 119.586 130.475 117.742C130.475 115.898 128.98 114.404 127.136 114.404C125.292 114.404 123.798 115.898 123.798 117.742C123.798 119.586 125.292 121.08 127.136 121.08Z" fill="#F2F2F2"/>
<path d="M42.0084 133.321C43.8521 133.321 45.3467 131.827 45.3467 129.983C45.3467 128.139 43.8521 126.645 42.0084 126.645C40.1647 126.645 38.67 128.139 38.67 129.983C38.67 131.827 40.1647 133.321 42.0084 133.321Z" fill="#F2F2F2"/>
<path d="M111.557 22.8776C113.401 22.8776 114.896 21.383 114.896 19.5393C114.896 17.6956 113.401 16.2009 111.557 16.2009C109.713 16.2009 108.219 17.6956 108.219 19.5393C108.219 21.383 109.713 22.8776 111.557 22.8776Z" fill="#F2F2F2"/>
<path d="M117.034 75.1465C116.602 75.3345 116.133 75.4253 115.662 75.4126C115.19 75.3999 114.727 75.2839 114.305 75.0728C113.883 74.8618 113.513 74.5608 113.22 74.1911C112.927 73.8213 112.718 73.3919 112.609 72.9329L101.2 71.7802L104.964 67.1604L115.221 68.9633C116.004 68.8312 116.809 68.9909 117.482 69.4123C118.155 69.8337 118.651 70.4874 118.874 71.2495C119.098 72.0117 119.034 72.8294 118.695 73.5476C118.356 74.2658 117.765 74.8348 117.034 75.1465Z" fill="#FFB8B8"/>
<path d="M110.017 73.3139L83.3914 70.8606L83.3548 70.8187L63.9227 48.5529C62.6439 46.5936 62.1624 44.2196 62.5768 41.9169C62.9912 39.6142 64.2702 37.5571 66.1519 36.1666C67.1931 35.3993 68.385 34.8611 69.6491 34.5876C70.9132 34.314 72.221 34.3113 73.4862 34.5796C74.7515 34.8479 75.9456 35.3811 76.9899 36.1442C78.0342 36.9073 78.9051 37.8828 79.5452 39.0067L91.5139 60.0228L110.31 67.575L110.017 73.3139Z" fill="#E6E6E6"/>
<path d="M176.846 30.4949C176.185 25.6449 175.356 20.4377 171.935 16.9366C170.849 15.8257 169.55 14.9461 168.116 14.3508C166.681 13.7555 165.141 13.457 163.588 13.473C162.035 13.4891 160.501 13.8195 159.079 14.4443C157.657 15.0692 156.377 15.9755 155.314 17.1086C152.824 19.765 151.725 23.4951 151.624 27.1347C151.523 30.7744 152.334 34.3736 153.233 37.9018C157.992 37.9969 162.716 37.0671 167.083 35.1757C168.176 34.7016 169.25 34.1657 170.404 33.872C171.558 33.5783 172.381 34.3173 173.454 34.8327L174.043 33.7045C174.525 34.6021 176.019 34.336 176.561 33.473C177.102 32.6099 176.984 31.5046 176.846 30.4949Z" fill="#2F2E41"/>
<path d="M157.983 57.5657L138.543 57.9814C138.245 57.4654 137.803 57.0472 137.271 56.7778C136.739 56.5084 136.141 56.3994 135.548 56.4641C134.955 56.5287 134.394 56.7642 133.933 57.1419C133.472 57.5196 133.13 58.0232 132.95 58.5915C132.77 59.1597 132.759 59.7681 132.918 60.3426C133.077 60.9171 133.4 61.433 133.847 61.8274C134.294 62.2218 134.846 62.4777 135.436 62.5641C136.026 62.6505 136.628 62.5636 137.169 62.314C139.747 62.4605 159.918 65.3233 161.121 63.4784C162.342 61.6058 168.862 54.9973 168.862 54.9973L163.851 47.8633L157.983 57.5657Z" fill="#9E616A"/>
<path d="M162.719 35.2935C167.764 35.2935 171.853 31.2044 171.853 26.1603C171.853 21.1162 167.764 17.0271 162.719 17.0271C157.675 17.0271 153.586 21.1162 153.586 26.1603C153.586 31.2044 157.675 35.2935 162.719 35.2935Z" fill="#9E616A"/>
<path d="M177.348 43.7333C176.271 41.5912 175.748 38.945 173.454 38.2505C171.904 37.7816 165.637 38.4844 164.225 39.2759C161.876 40.5927 164.005 43.06 162.619 45.369C161.113 47.8791 157.019 52.9164 155.512 55.4264C154.476 57.152 157.965 62.217 157.405 64.1501C156.845 66.0831 156.818 68.2527 157.772 70.0248C158.626 71.6109 157.391 73.014 158.249 74.5975C159.142 76.2443 160.238 82.4016 159.407 84.0806L158.85 85.7498C164.372 86.0742 169.014 79.478 174.501 78.7832C175.864 78.6106 177.279 78.3852 178.402 77.5941C180.056 76.4289 180.71 74.3144 181.119 72.3327C183.086 62.6457 181.759 52.5792 177.348 43.7333Z" fill="#3F3D56"/>
<path d="M185.626 66.351C184.857 64.2518 183.464 55.0739 183.464 55.0739L174.75 54.8184L179.01 65.3264L167.385 81.6016C167.385 81.6016 167.406 81.6373 167.445 81.7011C166.834 81.603 166.207 81.6917 165.647 81.9557C165.087 82.2196 164.62 82.6464 164.307 83.1802C163.993 83.7141 163.848 84.3302 163.891 84.9478C163.933 85.5654 164.161 86.1558 164.545 86.6417C164.928 87.1277 165.45 87.4865 166.04 87.6713C166.631 87.8561 167.264 87.8582 167.856 87.6774C168.448 87.4966 168.972 87.1413 169.359 86.658C169.746 86.1746 169.977 85.5858 170.024 84.9685C170.067 84.993 170.117 85.0019 170.166 84.9935C170.214 84.9852 170.258 84.9601 170.291 84.9227C171.584 83.2993 186.395 68.4501 185.626 66.351Z" fill="#9E616A"/>
<path d="M186.512 60.5548C185.712 57.179 184.906 53.7848 183.558 50.5883C182.209 47.3918 180.279 44.3726 177.563 42.2131C176.695 41.5227 175.725 40.9133 174.636 40.6986C173.548 40.484 172.322 40.7242 171.558 41.528C170.335 42.8143 170.703 44.8789 171.151 46.5961C172.474 51.6594 173.797 56.7227 175.119 61.786C178.939 61.3811 182.758 60.9763 186.577 60.5714L186.512 60.5548Z" fill="#3F3D56"/>
<path d="M173.911 27.427C173.574 25.2176 173.223 22.9896 172.433 20.9093C171.643 18.8289 170.369 16.8803 168.542 15.7018C165.649 13.8359 161.903 14.1958 158.66 15.2691C156.152 16.0991 153.703 17.3607 151.935 19.3889C150.166 21.4172 149.172 24.3113 149.83 26.9633C153.29 26.1459 156.75 25.3284 160.209 24.511L159.831 24.7786C160.967 25.3451 161.959 26.1629 162.731 27.17C163.504 28.1771 164.037 29.347 164.29 30.5909C164.538 31.8499 164.502 33.1482 164.186 34.3918C163.87 35.6354 163.282 36.7933 162.464 37.7816C164.823 36.9446 167.183 36.1075 169.542 35.2705C170.999 34.7539 172.558 34.1586 173.421 32.8334C174.423 31.297 174.19 29.2606 173.911 27.427Z" fill="#2F2E41"/>
</g>
<defs>
<clipPath id="clip0_2080_4983">
<rect width="240" height="179.376" fill="white"/>
</clipPath>
</defs>
</svg>
