<svg width="240" height="179" viewBox="0 0 240 179" fill="none" xmlns="http://www.w3.org/2000/svg">
<path d="M120 178.829C171.4 178.829 213.067 176.396 213.067 173.395C213.067 170.394 171.4 167.962 120 167.962C68.6004 167.962 26.9328 170.394 26.9328 173.395C26.9328 176.396 68.6004 178.829 120 178.829Z" fill="#F5F5F5"/>
<path d="M37.0896 79.9344C37.038 79.9347 36.9882 79.9156 36.95 79.8809C36.9118 79.8463 36.888 79.7986 36.8832 79.7472L35.8176 66.9312C35.8149 66.8793 35.8324 66.8283 35.8663 66.789C35.9003 66.7496 35.9482 66.7249 36 66.72C36.054 66.716 36.1074 66.7334 36.1487 66.7685C36.19 66.8035 36.2159 66.8533 36.2208 66.9072L37.2864 79.7232C37.2904 79.7772 37.273 79.8307 37.238 79.872C37.203 79.9133 37.1531 79.9392 37.0992 79.944L37.0896 79.9344Z" fill="#00A7EE"/>
<path d="M37.7232 87.5472C37.6716 87.5475 37.6218 87.5284 37.5836 87.4937C37.5454 87.4591 37.5216 87.4114 37.5168 87.36L37.1952 83.4816C37.1925 83.4548 37.1953 83.4276 37.2034 83.4019C37.2114 83.3761 37.2246 83.3522 37.242 83.3316C37.2595 83.311 37.2809 83.2942 37.305 83.282C37.3291 83.2698 37.3554 83.2626 37.3824 83.2608C37.4092 83.2582 37.4364 83.261 37.4621 83.2691C37.4879 83.2771 37.5118 83.2903 37.5324 83.3077C37.553 83.3252 37.5699 83.3466 37.582 83.3707C37.5942 83.3948 37.6014 83.4211 37.6032 83.448L37.9248 87.3264C37.9288 87.3804 37.9114 87.4339 37.8764 87.4752C37.8414 87.5165 37.7915 87.5424 37.7376 87.5472H37.7232Z" fill="#00A7EE"/>
<path d="M145.709 124.018H46.5984C45.3497 123.993 44.1533 123.512 43.236 122.664C42.3186 121.817 41.7439 120.662 41.6208 119.419L36.0384 52.32C35.9787 51.7339 36.0437 51.1419 36.2292 50.5827C36.4146 50.0236 36.7163 49.51 37.1143 49.0757C37.5123 48.6414 37.9977 48.2962 38.5386 48.0628C39.0796 47.8295 39.6637 47.7132 40.2528 47.7216H139.358C140.608 47.746 141.805 48.2274 142.723 49.0748C143.641 49.9222 144.217 51.0768 144.341 52.32L149.923 119.41C149.983 119.996 149.919 120.589 149.734 121.149C149.549 121.709 149.247 122.224 148.849 122.659C148.451 123.094 147.966 123.44 147.424 123.674C146.883 123.908 146.298 124.025 145.709 124.018Z" fill="white"/>
<path d="M145.709 124.21H46.5985C45.3011 124.188 44.057 123.69 43.1034 122.81C42.1499 121.93 41.5538 120.73 41.4289 119.438L35.8465 52.344C35.7902 51.7318 35.8622 51.1146 36.0581 50.5319C36.254 49.9492 36.5694 49.4138 36.9841 48.96C37.3968 48.5032 37.9013 48.1387 38.4646 47.8906C39.028 47.6424 39.6374 47.5161 40.2529 47.52H139.359C140.661 47.5407 141.91 48.0423 142.866 48.9284C143.821 49.8145 144.415 51.0225 144.533 52.32L150.111 119.41C150.172 120.021 150.104 120.639 149.91 121.223C149.716 121.807 149.401 122.342 148.985 122.796C148.57 123.249 148.063 123.609 147.498 123.853C146.934 124.097 146.324 124.218 145.709 124.21ZM40.2529 47.9232C39.6895 47.914 39.1306 48.0245 38.613 48.2473C38.0954 48.4701 37.631 48.8002 37.2504 49.2157C36.8698 49.6313 36.5816 50.1228 36.405 50.6579C36.2284 51.193 36.1673 51.7595 36.2257 52.32L41.8081 119.405C41.9269 120.602 42.4815 121.714 43.3665 122.529C44.2515 123.344 45.4052 123.806 46.6081 123.826H145.709C146.271 123.834 146.829 123.723 147.345 123.501C147.861 123.278 148.324 122.949 148.704 122.534C149.084 122.12 149.372 121.63 149.549 121.096C149.726 120.563 149.788 119.998 149.731 119.438L144.149 52.344C144.031 51.1463 143.477 50.0338 142.592 49.2185C141.707 48.4032 140.552 47.9422 139.349 47.9232H40.2529Z" fill="#00A7EE"/>
<path d="M139.358 47.7313H40.2528C39.6646 47.723 39.0814 47.839 38.5412 48.0718C38.001 48.3046 37.5161 48.6489 37.1182 49.0821C36.7203 49.5153 36.4185 50.0277 36.2324 50.5857C36.0463 51.1437 35.9802 51.7347 36.0384 52.32H144.341C144.214 51.0785 143.638 49.9263 142.72 49.0808C141.802 48.2354 140.606 47.7553 139.358 47.7313Z" fill="#00A7EE"/>
<path d="M42.5712 50.0305C42.5848 50.157 42.5714 50.285 42.5318 50.4059C42.4922 50.5268 42.4274 50.6379 42.3416 50.7319C42.2558 50.8258 42.1511 50.9005 42.0342 50.9508C41.9174 51.0012 41.7912 51.0262 41.664 51.0241C41.3943 51.0184 41.1361 50.9142 40.938 50.7312C40.7399 50.5481 40.6157 50.2989 40.5888 50.0305C40.576 49.9042 40.5899 49.7765 40.6298 49.656C40.6697 49.5354 40.7345 49.4246 40.8202 49.3308C40.9058 49.237 41.0102 49.1624 41.1267 49.1117C41.2432 49.0611 41.369 49.0356 41.496 49.0369C41.7663 49.0405 42.0257 49.144 42.2242 49.3275C42.4227 49.5109 42.5463 49.7613 42.5712 50.0305Z" fill="white"/>
<path d="M46.6032 50.0305C46.6168 50.157 46.6034 50.285 46.5638 50.4059C46.5242 50.5268 46.4594 50.6379 46.3736 50.7319C46.2878 50.8258 46.1831 50.9005 46.0662 50.9508C45.9494 51.0012 45.8232 51.0262 45.696 51.0241C45.4297 51.0138 45.1761 50.9076 44.982 50.725C44.7879 50.5424 44.6665 50.2957 44.64 50.0305C44.6272 49.9042 44.6411 49.7765 44.681 49.656C44.7209 49.5354 44.7857 49.4246 44.8714 49.3308C44.957 49.237 45.0615 49.1624 45.1779 49.1117C45.2944 49.0611 45.4202 49.0356 45.5472 49.0369C45.8141 49.0452 46.0689 49.1507 46.2634 49.3337C46.4579 49.5168 46.5787 49.7646 46.6032 50.0305Z" fill="white"/>
<path d="M50.6352 50.0305C50.6488 50.157 50.6354 50.285 50.5958 50.4059C50.5562 50.5268 50.4914 50.6379 50.4056 50.7319C50.3198 50.8258 50.215 50.9005 50.0982 50.9508C49.9814 51.0012 49.8552 51.0262 49.728 51.0241C49.4583 51.0184 49.2001 50.9142 49.002 50.7312C48.8039 50.5481 48.6797 50.2989 48.6528 50.0305C48.6399 49.9042 48.6539 49.7765 48.6938 49.656C48.7336 49.5354 48.7985 49.4246 48.8841 49.3308C48.9698 49.237 49.0742 49.1624 49.1907 49.1117C49.3071 49.0611 49.433 49.0356 49.56 49.0369C49.8302 49.0405 50.0896 49.144 50.2882 49.3275C50.4867 49.5109 50.6103 49.7613 50.6352 50.0305Z" fill="white"/>
<path d="M137.107 115.224H53.76C52.7672 115.205 51.8158 114.823 51.0859 114.15C50.3561 113.477 49.8985 112.559 49.8 111.571L45.8832 64.8C45.8364 64.3335 45.8888 63.8624 46.0371 63.4177C46.1854 62.973 46.4261 62.5647 46.7435 62.2196C47.0609 61.8746 47.4477 61.6006 47.8785 61.4158C48.3094 61.231 48.7744 61.1394 49.2432 61.1472H132.605C133.598 61.1658 134.549 61.5479 135.279 62.2211C136.009 62.8944 136.466 63.8119 136.565 64.8L140.458 111.595C140.501 112.059 140.446 112.527 140.296 112.968C140.147 113.409 139.907 113.814 139.591 114.156C139.275 114.498 138.89 114.77 138.463 114.954C138.035 115.138 137.573 115.23 137.107 115.224Z" fill="#F0F0F0"/>
<path opacity="0.1" d="M111.322 69.3169L85.4976 100.411C84.6859 101.388 84.1396 102.557 83.9114 103.806C83.6832 105.055 83.7807 106.342 84.1947 107.542C84.6086 108.742 85.325 109.816 86.2746 110.658C87.2242 111.501 88.375 112.085 89.616 112.354L131.52 121.411C132.831 121.696 134.194 121.618 135.464 121.186C136.733 120.754 137.862 119.985 138.727 118.961C139.593 117.937 140.164 116.696 140.378 115.373C140.592 114.049 140.442 112.691 139.944 111.446L123.878 71.2897C123.404 70.0981 122.627 69.0507 121.625 68.2504C120.622 67.4501 119.429 66.9246 118.162 66.7255C116.895 66.5264 115.598 66.6607 114.399 67.1151C113.199 67.5694 112.139 68.3283 111.322 69.3169Z" fill="#263238"/>
<path opacity="0.1" d="M53.8368 73.6753L44.8416 97.9201C44.5722 98.6603 44.4946 99.4566 44.616 100.235C44.7374 101.013 45.0539 101.748 45.536 102.371C46.0181 102.994 46.6501 103.485 47.373 103.798C48.0959 104.11 48.8863 104.235 49.6704 104.16L75.9408 101.582C76.7768 101.501 77.5752 101.195 78.2518 100.697C78.9284 100.2 79.4581 99.5285 79.785 98.7547C80.1119 97.981 80.2239 97.1334 80.1091 96.3013C79.9943 95.4692 79.657 94.6836 79.1328 94.0273L61.8528 72.3793C61.3365 71.7349 60.6585 71.2391 59.888 70.9424C59.1175 70.6458 58.2821 70.5589 57.467 70.6907C56.6519 70.8224 55.8864 71.1682 55.2487 71.6925C54.6109 72.2169 54.1237 72.9011 53.8368 73.6753Z" fill="#263238"/>
<path d="M120.23 61.4881L96.0864 96.5281C95.3323 97.6226 94.8717 98.8923 94.7487 100.216C94.6257 101.539 94.8443 102.872 95.3838 104.087C95.9232 105.301 96.7654 106.357 97.8297 107.153C98.894 107.95 100.145 108.459 101.462 108.634L145.843 114.543C147.239 114.728 148.659 114.531 149.951 113.972C151.244 113.413 152.36 112.514 153.18 111.369C154.001 110.225 154.495 108.879 154.609 107.476C154.724 106.072 154.455 104.664 153.83 103.402L133.594 62.4385C132.993 61.225 132.085 60.1896 130.961 59.435C129.837 58.6804 128.535 58.2329 127.184 58.1369C125.833 58.0408 124.481 58.2996 123.261 58.8874C122.042 59.4753 120.997 60.3718 120.23 61.4881Z" fill="#00A7EE"/>
<path d="M102.514 105.504C101.712 105.395 100.95 105.09 100.295 104.615C99.6401 104.14 99.1127 103.51 98.76 102.782C98.3963 102.094 98.2253 101.321 98.265 100.543C98.3047 99.7661 98.5537 99.0139 98.9856 98.3664L123.192 63.2208C123.63 62.5939 124.235 62.1029 124.939 61.8041C125.642 61.5053 126.416 61.4107 127.171 61.5312C127.973 61.6394 128.736 61.9446 129.391 62.4195C130.046 62.8945 130.573 63.5244 130.925 64.2528L151.2 105.317C151.564 106.005 151.735 106.779 151.695 107.556C151.655 108.333 151.406 109.085 150.974 109.733C150.538 110.361 149.933 110.853 149.229 111.153C148.525 111.453 147.751 111.548 146.995 111.427L102.514 105.504Z" fill="white"/>
<path d="M125.112 73.9536L127.939 74.328C128.823 74.4527 129.63 74.8983 130.207 75.58C130.783 76.2617 131.088 77.1317 131.064 78.024L130.872 81.7104C130.867 81.8441 130.853 81.9772 130.829 82.1088L128.818 93.2208C128.674 93.9867 128.236 94.666 127.599 95.1143C126.961 95.5626 126.174 95.7443 125.405 95.6208C124.588 95.5047 123.835 95.1156 123.267 94.5169C122.7 93.9181 122.352 93.1449 122.28 92.3232L121.469 80.8416C121.459 80.709 121.459 80.5758 121.469 80.4432L121.656 76.752C121.676 76.3327 121.785 75.9223 121.975 75.5479C122.164 75.1734 122.431 74.8433 122.758 74.5791C123.084 74.3149 123.462 74.1227 123.868 74.0149C124.274 73.9071 124.698 73.8862 125.112 73.9536ZM124.886 98.7024L125.654 98.8032C126.445 98.9149 127.168 99.3136 127.684 99.9235C128.2 100.533 128.474 101.312 128.453 102.11C128.436 102.487 128.34 102.856 128.17 103.193C128.001 103.529 127.762 103.826 127.47 104.064C127.177 104.302 126.838 104.476 126.474 104.573C126.11 104.671 125.729 104.69 125.357 104.63L124.589 104.525C123.798 104.414 123.076 104.016 122.56 103.407C122.044 102.798 121.77 102.02 121.79 101.222C121.806 100.846 121.902 100.476 122.072 100.139C122.241 99.8021 122.479 99.5047 122.772 99.2666C123.065 99.0285 123.404 98.855 123.769 98.7578C124.133 98.6606 124.514 98.6417 124.886 98.7024Z" fill="#00A7EE"/>
<path d="M63.12 66.8449L56.4912 91.9825C56.2913 92.7464 56.2885 93.5485 56.4831 94.3137C56.6777 95.0789 57.0633 95.7822 57.6039 96.3578C58.1444 96.9333 58.8222 97.3623 59.5737 97.6045C60.3252 97.8466 61.1259 97.8942 61.9008 97.7425L87.6144 92.7265C88.4302 92.5638 89.1877 92.1859 89.8084 91.632C90.4291 91.078 90.8903 90.3682 91.1444 89.5761C91.3985 88.7839 91.4362 87.9383 91.2535 87.1266C91.0709 86.315 90.6745 85.567 90.1056 84.9601L71.04 64.8241C70.4682 64.2165 69.744 63.7732 68.9428 63.5402C68.1416 63.3073 67.2927 63.2932 66.4842 63.4995C65.6757 63.7058 64.9373 64.1249 64.3456 64.7132C63.754 65.3015 63.3308 66.0376 63.12 66.8449Z" fill="#00A7EE"/>
<path d="M61.848 95.7169C61.3759 95.8024 60.8898 95.7671 60.4349 95.6144C59.9801 95.4616 59.5712 95.1964 59.2464 94.8433C58.9112 94.5032 58.669 94.0827 58.5429 93.6221C58.4168 93.1615 58.4112 92.6763 58.5264 92.2129L65.1696 67.0081C65.2848 66.5677 65.5228 66.1691 65.856 65.8589C66.1892 65.5487 66.6037 65.3396 67.0512 65.2561C67.5237 65.1717 68.0099 65.2079 68.4647 65.3615C68.9195 65.515 69.3281 65.7809 69.6528 66.1345L88.7856 86.2945C89.1212 86.6344 89.3641 87.0547 89.4909 87.5152C89.6178 87.9757 89.6245 88.4611 89.5104 88.9249C89.3944 89.3644 89.156 89.762 88.8229 90.0713C88.4898 90.3806 88.0757 90.589 87.6288 90.6721L61.848 95.7169Z" fill="white"/>
<path d="M68.2991 72.9263L69.9359 72.6047C70.4644 72.5195 71.0058 72.6326 71.4559 72.9223C71.906 73.2121 72.2331 73.658 72.3743 74.1743L72.9599 76.3679C72.9821 76.4485 72.9998 76.5302 73.0127 76.6127L74.0543 83.5199C74.1355 83.985 74.0298 84.4632 73.7601 84.8507C73.4904 85.2381 73.0786 85.5034 72.6143 85.5887C72.1275 85.6696 71.6276 85.5813 71.198 85.3385C70.7683 85.0957 70.4347 84.7131 70.2527 84.2543L67.5935 77.6879C67.5613 77.6114 67.534 77.5328 67.5119 77.4527L66.9071 75.2543C66.8285 75.01 66.8029 74.7516 66.832 74.4966C66.8612 74.2415 66.9444 73.9956 67.0762 73.7752C67.2079 73.5549 67.3851 73.3652 67.596 73.2188C67.8069 73.0724 68.0466 72.9727 68.2991 72.9263ZM72.9311 87.4607L73.3775 87.3743C73.8509 87.2924 74.3379 87.3908 74.7422 87.6503C75.1465 87.9098 75.4389 88.3114 75.5615 88.7759C75.6292 88.9923 75.6505 89.2204 75.624 89.4455C75.5976 89.6706 75.524 89.8876 75.4081 90.0824C75.2921 90.2771 75.1364 90.4452 74.9511 90.5758C74.7659 90.7063 74.5552 90.7963 74.3327 90.8399L73.8863 90.9263C73.4136 91.0085 72.9272 90.9107 72.523 90.6522C72.1188 90.3937 71.826 89.9932 71.7023 89.5295C71.6347 89.3129 71.6134 89.0845 71.6398 88.8591C71.6662 88.6337 71.7397 88.4164 71.8556 88.2213C71.9715 88.0261 72.1272 87.8576 72.3125 87.7266C72.4978 87.5955 72.7086 87.505 72.9311 87.4607Z" fill="#00A7EE"/>
<path d="M186.413 72.48L182.688 73.6896L185.683 77.232C186.534 76.4953 187.27 75.6363 187.867 74.6832C188.022 74.4133 188.064 74.0935 187.985 73.7927C187.906 73.4919 187.712 73.2343 187.445 73.0752L186.413 72.48Z" fill="#FFCCBC"/>
<path d="M180.974 76.6175L183.206 79.3295L185.688 77.2511L182.688 73.7087L180.974 76.6175Z" fill="#FFCCBC"/>
<path d="M187.618 43.5264C188.525 46.0224 189.36 48.5184 190.152 51.048C190.944 53.5776 191.674 56.1168 192.312 58.776L192.538 59.7984L192.643 60.3312L192.696 60.6V60.6672V60.768L192.725 60.9696C192.83 61.8828 192.784 62.807 192.59 63.7056C192.284 65.1472 191.821 66.5509 191.208 67.8912C190.089 70.3957 188.712 72.7766 187.099 74.9952L184.608 73.6176C185.491 71.2176 186.365 68.7648 187.008 66.3888C187.326 65.2754 187.547 64.1368 187.67 62.9856C187.71 62.5881 187.691 62.1869 187.613 61.7952L187.406 61.0464L187.138 60.1584C186.384 57.7584 185.525 55.2864 184.675 52.8288C183.826 50.3712 182.976 47.8896 182.16 45.4272L187.618 43.5264Z" fill="#FFCCBC"/>
<path d="M166.886 28.6751C166.949 28.9775 166.843 29.2559 166.651 29.3087C166.459 29.3615 166.248 29.1503 166.171 28.8287C166.094 28.5071 166.21 28.2479 166.406 28.1999C166.603 28.1519 166.824 28.3775 166.886 28.6751Z" fill="#263238"/>
<path d="M166.872 29.2511C166.71 30.2564 166.416 31.236 165.998 32.1647C166.234 32.2599 166.489 32.3016 166.743 32.2867C166.997 32.2717 167.244 32.2005 167.467 32.0783L166.872 29.2511Z" fill="#630F0F"/>
<path d="M166.08 26.8799C166.051 26.8799 166.022 26.873 165.996 26.8596C165.97 26.8463 165.948 26.8269 165.931 26.8031C165.917 26.784 165.908 26.7623 165.902 26.7393C165.897 26.7163 165.896 26.6925 165.9 26.6693C165.905 26.646 165.913 26.6238 165.926 26.604C165.938 26.5841 165.955 26.567 165.974 26.5535C166.216 26.4042 166.49 26.3149 166.773 26.2932C167.056 26.2715 167.34 26.3179 167.602 26.4287C167.624 26.4377 167.643 26.4509 167.66 26.4676C167.677 26.4843 167.69 26.5042 167.699 26.5261C167.708 26.548 167.713 26.5715 167.712 26.5952C167.712 26.6189 167.707 26.6422 167.698 26.6639C167.679 26.7082 167.645 26.7436 167.601 26.7625C167.557 26.7814 167.507 26.7822 167.462 26.7647C167.258 26.6744 167.035 26.6347 166.812 26.6489C166.589 26.6631 166.372 26.7308 166.181 26.8463C166.152 26.8688 166.116 26.8807 166.08 26.8799Z" fill="#263238"/>
<path d="M177.173 29.6256C177.509 33.1104 177.014 36.4848 177.792 39.5136C177.792 39.5136 176.928 42.3264 171.778 42.3264C166.114 42.3264 169.181 39.5136 169.181 39.5136C172.301 38.7792 172.306 36.4848 171.854 34.3296L177.173 29.6256Z" fill="#FFCCBC"/>
<path d="M178.891 40.4783C179.333 39.5903 179.626 38.3279 178.714 38.0111C177.71 37.6607 172.349 37.5311 170.405 38.2031C169.886 38.3401 169.442 38.6743 169.167 39.1344C168.891 39.5945 168.807 40.144 168.931 40.6655L178.891 40.4783Z" fill="#263238"/>
<path d="M190.464 166.891C190.817 166.8 191.159 166.668 191.482 166.498C191.499 166.489 191.513 166.476 191.524 166.46C191.534 166.444 191.539 166.425 191.539 166.406C191.539 166.387 191.532 166.368 191.52 166.352C191.508 166.336 191.491 166.325 191.472 166.32C191.304 166.262 189.816 165.768 189.422 166.104C189.38 166.141 189.348 166.19 189.33 166.244C189.312 166.298 189.309 166.356 189.322 166.411C189.329 166.512 189.362 166.608 189.418 166.692C189.473 166.776 189.549 166.845 189.638 166.891C189.906 166.984 190.197 166.984 190.464 166.891ZM191.174 166.411C190.522 166.709 189.994 166.81 189.734 166.675C189.674 166.646 189.623 166.601 189.586 166.545C189.549 166.49 189.527 166.425 189.523 166.358C189.516 166.337 189.515 166.313 189.521 166.291C189.527 166.269 189.539 166.249 189.557 166.234C189.754 166.08 190.56 166.248 191.174 166.43V166.411Z" fill="#00A7EE"/>
<path d="M191.462 166.507C191.475 166.504 191.488 166.498 191.498 166.49C191.509 166.482 191.518 166.472 191.525 166.46C191.531 166.448 191.536 166.435 191.537 166.422C191.539 166.409 191.538 166.395 191.534 166.382C191.534 166.334 191.146 165.192 190.574 164.942C190.508 164.907 190.434 164.886 190.359 164.881C190.284 164.877 190.208 164.887 190.138 164.914C190.066 164.93 190.002 164.972 189.957 165.03C189.913 165.089 189.89 165.161 189.893 165.235C189.893 165.715 190.93 166.397 191.4 166.526L191.462 166.507ZM190.262 165.067C190.343 165.048 190.428 165.059 190.502 165.096C190.869 165.394 191.139 165.795 191.275 166.248C190.795 166.032 190.114 165.485 190.104 165.206C190.104 165.182 190.104 165.125 190.219 165.077L190.262 165.067Z" fill="#00A7EE"/>
<path d="M164.246 169.824C164.611 169.814 164.973 169.764 165.326 169.675C165.345 169.67 165.362 169.659 165.376 169.645C165.389 169.631 165.399 169.613 165.403 169.594C165.405 169.574 165.401 169.554 165.393 169.537C165.384 169.519 165.371 169.504 165.355 169.493C165.206 169.402 163.872 168.581 163.411 168.816C163.36 168.842 163.317 168.882 163.287 168.931C163.258 168.98 163.242 169.037 163.243 169.094C163.233 169.191 163.246 169.288 163.281 169.378C163.316 169.468 163.372 169.549 163.445 169.613C163.682 169.769 163.963 169.843 164.246 169.824ZM165.043 169.536C164.342 169.675 163.8 169.651 163.574 169.459C163.524 169.416 163.485 169.361 163.462 169.299C163.438 169.237 163.431 169.17 163.44 169.104C163.44 169.027 163.474 169.003 163.502 168.989C163.738 168.869 164.501 169.219 165.043 169.536Z" fill="#00A7EE"/>
<path d="M165.302 169.675C165.321 169.679 165.341 169.679 165.36 169.675C165.374 169.665 165.386 169.651 165.393 169.635C165.401 169.619 165.404 169.602 165.403 169.584C165.403 169.536 165.298 168.341 164.818 167.947C164.761 167.897 164.695 167.86 164.623 167.839C164.55 167.817 164.475 167.812 164.4 167.822C164.327 167.822 164.255 167.847 164.198 167.894C164.141 167.94 164.102 168.005 164.088 168.077C164.002 168.557 164.827 169.445 165.259 169.68L165.302 169.675ZM164.467 168C164.55 167.998 164.63 168.028 164.693 168.082C164.98 168.457 165.147 168.91 165.173 169.382C164.746 169.056 164.213 168.374 164.27 168.101C164.27 168.101 164.27 168.014 164.414 168H164.458H164.467Z" fill="#00A7EE"/>
<path d="M169.762 169.526H165.97L165.931 160.752H169.723L169.762 169.526Z" fill="#FFCCBC"/>
<path d="M196.157 166.282L192.509 166.949L189.893 158.314L193.541 157.646L196.157 166.282Z" fill="#FFCCBC"/>
<path d="M191.818 165.979L195.96 165.019C196.032 165.001 196.108 165.009 196.175 165.042C196.241 165.074 196.294 165.129 196.325 165.197L197.698 168.331C197.731 168.409 197.746 168.494 197.743 168.579C197.739 168.664 197.718 168.747 197.679 168.822C197.64 168.898 197.585 168.964 197.518 169.016C197.45 169.068 197.372 169.104 197.29 169.123C195.85 169.44 195.12 169.517 193.296 169.949C192.178 170.213 189.893 170.88 188.342 171.245C186.792 171.61 186.293 170.112 186.902 169.805C189.619 168.504 190.522 167.405 191.266 166.349C191.4 166.164 191.595 166.033 191.818 165.979Z" fill="#263238"/>
<path d="M166.013 169.085H170.15C170.225 169.085 170.296 169.11 170.353 169.158C170.41 169.205 170.449 169.271 170.462 169.344L171.082 172.704C171.096 172.787 171.093 172.872 171.071 172.954C171.049 173.035 171.009 173.11 170.955 173.175C170.9 173.239 170.832 173.29 170.755 173.325C170.678 173.36 170.595 173.377 170.51 173.376C169.018 173.352 166.867 173.266 164.99 173.266C162.797 173.266 162.014 173.386 159.442 173.386C157.886 173.386 157.522 171.811 158.174 171.672C161.16 171.019 162.466 170.952 165.091 169.373C165.366 169.194 165.685 169.095 166.013 169.085Z" fill="#263238"/>
<path d="M186.24 40.4927C189.778 42.9839 190.843 49.3967 190.843 49.3967L182.827 53.4575C181.56 50.923 180.577 48.2554 179.899 45.5039C179.04 41.7119 183.725 38.7263 186.24 40.4927Z" fill="#00A7EE"/>
<path opacity="0.2" d="M182.232 44.5824L185.39 52.1472L182.827 53.4576C182.033 51.8516 181.34 50.1971 180.754 48.504L182.232 44.5824Z" fill="black"/>
<path d="M162.667 57.12C162.696 61.3488 162.95 66.6096 163.579 73.1376H183.84C184.085 70.1616 182.842 56.1312 185.861 42.0816C185.914 41.8342 185.916 41.5785 185.867 41.3302C185.818 41.0819 185.719 40.8463 185.576 40.6377C185.432 40.4291 185.248 40.2521 185.034 40.1174C184.819 39.9827 184.58 39.8932 184.33 39.8544C182.74 39.6 181.137 39.4286 179.53 39.3408C176.66 39.1751 173.783 39.1751 170.914 39.3408C169.756 39.4412 168.604 39.6014 167.462 39.8208C166.614 39.9933 165.831 40.402 165.204 40.9998C164.577 41.5977 164.132 42.3603 163.92 43.2C163.29 45.7888 162.918 48.4338 162.811 51.096C162.72 52.824 162.653 54.8256 162.667 57.12Z" fill="#00A7EE"/>
<path opacity="0.2" d="M169.061 49.1807C167.722 50.1407 165.158 50.6207 162.821 50.8175C162.859 50.1983 162.907 49.6127 162.96 49.0607C163.589 48.7295 164.194 48.4271 164.765 48.1487L169.061 49.1807Z" fill="black"/>
<g opacity="0.2">
<path d="M165.931 160.752L165.955 165.629H169.742L169.723 160.752H165.931Z" fill="black"/>
<path d="M193.541 157.646L189.893 158.318L191.246 162.768L194.894 162.096L193.541 157.646Z" fill="black"/>
</g>
<path d="M176.64 25.5456C177.192 29.2752 177.706 31.4256 176.266 33.7776C175.808 34.5424 175.151 35.1677 174.364 35.5857C173.577 36.0037 172.69 36.1985 171.801 36.1491C170.911 36.0996 170.051 35.8078 169.316 35.3052C168.58 34.8026 167.995 34.1084 167.626 33.2976C166.142 30.1968 165.485 24.6144 168.734 22.2576C169.424 21.7305 170.239 21.3942 171.1 21.2823C171.96 21.1704 172.835 21.2869 173.636 21.62C174.437 21.9532 175.137 22.4914 175.664 23.1805C176.191 23.8695 176.528 24.6852 176.64 25.5456Z" fill="#FFCCBC"/>
<path d="M168.883 28.272C167.477 27.6528 167.611 25.44 168.038 24.5088C166.411 25.0656 164.059 25.3872 163.637 23.7312C163.214 22.0752 164.65 21.5472 163.771 20.1312C162.893 18.7152 165.691 17.1744 166.997 19.1712C168.302 21.168 171.528 20.2752 173.611 18.3696C175.128 16.9824 177.346 18.7728 176.467 20.5824C176.467 20.5824 181.027 20.2896 180.12 23.3856C179.213 26.4816 177.931 26.5872 178.224 28.7904C178.426 30.2784 178.598 33.3024 176.813 33.7296C174.653 34.224 169.267 32.3088 168.883 28.272Z" fill="#263238"/>
<path opacity="0.2" d="M168.854 32.3088C168.442 32.6064 168.014 32.9232 167.578 33.2688L167.602 33.3216C168.028 34.221 168.711 34.9743 169.565 35.4864C169.838 35.2224 169.992 34.3344 170.501 34.3488C172.022 34.392 174.965 33.7536 175.454 32.0352L168.854 32.3088Z" fill="black"/>
<path d="M170.04 28.2191C170.145 29.0485 170.019 29.8907 169.675 30.6527C169.243 31.5311 168.562 30.9695 168.298 29.8895C168.058 28.9295 167.995 27.2927 168.619 26.8127C169.243 26.3327 169.92 27.1247 170.04 28.2191Z" fill="#FFCCBC"/>
<path d="M170.77 73.1519C170.77 73.1519 173.952 102.105 175.891 112.953C178.018 124.833 189.029 162.12 189.029 162.12L195.816 160.68C195.816 160.68 188.237 125.793 187.2 114.033C186.091 101.265 183.84 73.1519 183.84 73.1519H170.77Z" fill="#00A7EE"/>
<path opacity="0.3" d="M170.77 73.1519C170.77 73.1519 173.952 102.105 175.891 112.953C178.018 124.833 189.029 162.12 189.029 162.12L195.816 160.68C195.816 160.68 188.237 125.793 187.2 114.033C186.144 101.899 186.144 101.923 183.84 73.1519H170.77Z" fill="black"/>
<path d="M187.512 159.84C187.483 159.84 188.664 162.317 188.664 162.317L196.32 160.68L195.778 158.366L187.512 159.84Z" fill="#263238"/>
<path opacity="0.2" d="M173.088 83.472C178.022 84.432 176.779 102.984 175.814 112.522C174.643 105.802 173.045 92.808 171.974 83.6064C172.319 83.435 172.712 83.3875 173.088 83.472Z" fill="black"/>
<path d="M163.579 73.152C163.579 73.152 161.966 101.472 161.933 113.035C161.894 125.035 164.573 164.395 164.573 164.395H170.995C170.995 164.395 172.723 125.75 173.462 113.947C174.269 101.078 176.904 73.1472 176.904 73.1472L163.579 73.152Z" fill="#00A7EE"/>
<path opacity="0.3" d="M163.579 73.152C163.579 73.152 161.966 101.472 161.933 113.035C161.894 125.035 164.573 164.395 164.573 164.395H170.995C170.995 164.395 172.723 125.75 173.462 113.947C174.269 101.078 176.904 73.1472 176.904 73.1472L163.579 73.152Z" fill="black"/>
<path d="M163.44 161.846C163.411 161.846 163.699 164.51 163.699 164.51H171.504L171.806 162.11L163.44 161.846Z" fill="#263238"/>
<path d="M171.61 46.4352C170.842 46.5072 170.194 46.5504 169.488 46.5696C168.782 46.5888 168.11 46.6032 167.424 46.5984C166.042 46.5984 164.659 46.512 163.267 46.3584C161.854 46.2127 160.453 45.9722 159.072 45.6384C157.61 45.2948 156.19 44.791 154.838 44.136L154.68 44.0544C154.384 43.9097 154.119 43.7078 153.901 43.4602C153.683 43.2127 153.516 42.9245 153.41 42.6122C153.303 42.2999 153.26 41.9696 153.282 41.6405C153.304 41.3114 153.391 40.9898 153.538 40.6944C153.605 40.5582 153.683 40.4282 153.773 40.3056C154.346 39.5463 154.998 38.8497 155.717 38.2272C156.365 37.6512 157.013 37.1376 157.666 36.648C158.971 35.664 160.306 34.7952 161.645 33.9504C162.984 33.1056 164.352 32.3232 165.73 31.5504C167.107 30.7776 168.494 30.0816 169.934 29.4144C170.251 29.2879 170.602 29.2777 170.925 29.3858C171.249 29.4939 171.523 29.7131 171.7 30.0046C171.877 30.296 171.945 30.6408 171.891 30.9774C171.838 31.3141 171.666 31.6209 171.408 31.8432C170.203 32.7696 168.96 33.6864 167.755 34.6272C166.55 35.568 165.355 36.4944 164.16 37.4448C162.965 38.3952 161.827 39.3648 160.738 40.3248C160.195 40.8048 159.672 41.2848 159.206 41.808C158.788 42.2335 158.408 42.6962 158.074 43.1904L157.013 39.3504C158.058 39.7384 159.138 40.0261 160.238 40.2096C161.416 40.4096 162.603 40.5474 163.795 40.6224C165.01 40.6992 166.238 40.7424 167.472 40.7424C168.091 40.7424 168.71 40.7424 169.325 40.7424C169.939 40.7424 170.587 40.6944 171.125 40.6656H171.187C171.913 40.6649 172.613 40.9383 173.146 41.4313C173.679 41.9243 174.006 42.6003 174.062 43.3242C174.117 44.048 173.898 44.7663 173.447 45.3351C172.996 45.904 172.346 46.2814 171.629 46.392L171.61 46.4352Z" fill="#FFCCBC"/>
<path d="M174.298 28.6656L171.898 29.1984C171.898 29.1984 168.686 28.8 167.952 31.2192L169.872 32.8416L172.81 33.3216C173.274 33.3939 173.75 33.3166 174.168 33.1008L174.917 32.712C175.087 32.6244 175.233 32.4954 175.34 32.3368C175.447 32.1783 175.513 31.9954 175.531 31.8048L175.709 29.8848C175.726 29.703 175.7 29.5196 175.632 29.35C175.564 29.1804 175.457 29.0296 175.319 28.9101C175.18 28.7907 175.016 28.7062 174.838 28.6636C174.66 28.6211 174.475 28.6217 174.298 28.6656Z" fill="#FFCCBC"/>
<path d="M169.613 49.2384C165.576 50.3616 160.973 48.96 160.973 48.96L162.667 39.9216C162.667 39.9216 166.675 39.5664 169.181 39.5136C175.627 39.36 176.89 47.2224 169.613 49.2384Z" fill="#00A7EE"/>
</svg>
