<svg width="240" height="179" viewBox="0 0 240 179" fill="none" xmlns="http://www.w3.org/2000/svg">
<path d="M120 178.829C171.4 178.829 213.067 176.396 213.067 173.395C213.067 170.394 171.4 167.962 120 167.962C68.6004 167.962 26.9328 170.394 26.9328 173.395C26.9328 176.396 68.6004 178.829 120 178.829Z" fill="#F5F5F5"/>
<path d="M62.5728 66.8448C62.1504 67.8048 61.6848 68.8416 61.2768 69.8544C60.8688 70.8672 60.4464 71.9088 60.0768 72.9456C59.3184 74.9668 58.7104 77.0413 58.2576 79.152L58.1184 79.92L58.0704 80.208C58.0704 80.2896 58.0704 80.3952 58.0416 80.4912C58.0233 80.9586 58.0329 81.4266 58.0704 81.8928C58.1616 82.9056 58.3248 83.9904 58.5504 85.0752C58.9536 87.2496 59.4672 89.4912 59.9904 91.6992L57.528 92.6592C56.3801 90.5668 55.4025 88.3853 54.6048 86.136C54.1844 84.9653 53.8445 83.7674 53.5872 82.5504C53.443 81.8771 53.3531 81.1933 53.3184 80.5056C53.3184 80.3136 53.3184 80.1312 53.3184 79.9248C53.3184 79.7184 53.3184 79.488 53.352 79.3536L53.448 78.3936C53.5914 77.1573 53.811 75.9309 54.1056 74.7216C54.3744 73.5216 54.72 72.3552 55.0656 71.2032C55.4112 70.0512 55.8432 68.9184 56.2992 67.8048C56.5248 67.248 56.7792 66.696 57 66.144C57.2208 65.592 57.48 65.064 57.7872 64.4736L62.5728 66.8448Z" fill="#FFCCBC"/>
<path d="M59.8608 91.0513L61.7328 92.8801L57.648 94.8001C57.648 94.8001 56.6592 93.0673 57.3456 91.5025L59.8608 91.0513Z" fill="#FFCCBC"/>
<path d="M63.2448 95.6016L59.7936 97.0128L57.6528 94.7808L61.7328 92.88L63.2448 95.6016Z" fill="#FFCCBC"/>
<path opacity="0.4" d="M133.157 93.6336C126.365 92.871 119.952 90.112 114.729 85.7053C109.505 81.2985 105.705 75.4419 103.809 68.8759C101.913 62.3099 102.007 55.3292 104.078 48.8163C106.149 42.3034 110.105 36.5508 115.445 32.2857C120.785 28.0206 127.269 25.4344 134.079 24.8542C140.888 24.2739 147.717 25.7257 153.702 29.0259C159.686 32.326 164.558 37.3265 167.701 43.3951C170.844 49.4636 172.117 56.3279 171.36 63.12C170.857 67.6327 169.469 72.0019 167.276 75.9781C165.084 79.9542 162.129 83.4593 158.581 86.2931C155.033 89.1268 150.962 91.2337 146.599 92.4932C142.237 93.7527 137.669 94.1402 133.157 93.6336Z" fill="#FAFAFA"/>
<path opacity="0.4" d="M158.299 32.0593L105.739 74.0545C105.518 73.5745 105.302 73.0945 105.101 72.6145C103.783 69.4802 102.94 66.167 102.6 62.7841L147.998 26.5105C151.726 27.7538 155.21 29.6309 158.299 32.0593Z" fill="#FAFAFA"/>
<path opacity="0.4" d="M170.429 50.4576L121.013 89.9376C116.318 87.4904 112.25 83.9953 109.123 79.7232L163.08 36.6096C166.558 40.6017 169.072 45.3396 170.429 50.4576Z" fill="#FAFAFA"/>
<path d="M98.1072 46.0801L97.6512 45.9265C98.4409 43.5961 99.4335 41.3395 100.618 39.1825L101.035 39.4129C99.8668 41.5457 98.887 43.7766 98.1072 46.0801ZM103.934 34.8769L103.546 34.5937C107.49 29.2599 112.653 24.9464 118.603 22.0129L118.819 22.4449C112.937 25.3481 107.833 29.6155 103.934 34.8913V34.8769ZM156.538 23.1025C154.969 22.2612 153.346 21.5252 151.68 20.8993L151.853 20.4481C153.535 21.0887 155.174 21.8391 156.758 22.6945L156.538 23.1025Z" fill="#00A7EE"/>
<path opacity="0.3" d="M98.1072 46.0801L97.6512 45.9265C98.4409 43.5961 99.4335 41.3395 100.618 39.1825L101.035 39.4129C99.8668 41.5457 98.887 43.7766 98.1072 46.0801ZM103.934 34.8769L103.546 34.5937C107.49 29.2599 112.653 24.9464 118.603 22.0129L118.819 22.4449C112.937 25.3481 107.833 29.6155 103.934 34.8913V34.8769ZM156.538 23.1025C154.969 22.2612 153.346 21.5252 151.68 20.8993L151.853 20.4481C153.535 21.0887 155.174 21.8391 156.758 22.6945L156.538 23.1025Z" fill="black"/>
<path d="M172.738 41.6352C168.293 32.417 160.471 25.2626 150.894 21.6553C141.317 18.0479 130.72 18.2643 121.298 22.2595C111.876 26.2547 104.353 33.7224 100.288 43.1144C96.2237 52.5063 95.9291 63.1023 99.4656 72.7056C96.2592 73.8288 93.0912 75.0336 89.9424 76.2768C85.4016 78.0784 80.9024 79.96 76.4448 81.9216C71.9904 83.8944 67.5552 85.9056 63.1632 88.008C60.96 89.04 58.7856 90.1296 56.592 91.1856C55.4508 91.676 54.4169 92.3854 53.5488 93.2736C53.079 93.7655 52.6653 94.3081 52.3152 94.8912C51.888 95.581 51.5646 96.3298 51.3552 97.1136C50.994 98.5261 51.1502 100.021 51.7955 101.329C52.4408 102.636 53.5327 103.669 54.8736 104.242C55.6182 104.554 56.4038 104.758 57.2064 104.846C57.8842 104.923 58.5685 104.923 59.2464 104.846C60.4782 104.697 61.6687 104.307 62.7504 103.699C64.9248 102.6 67.1136 101.539 69.2736 100.411C73.5936 98.208 77.9136 95.9088 82.1808 93.576C86.448 91.2432 90.72 88.8 94.8864 86.2944C97.7664 84.552 100.675 82.7712 103.526 80.9088C109.001 89.552 117.592 95.7575 127.517 98.2395C137.443 100.722 147.943 99.2897 156.842 94.2408C165.741 89.1919 172.356 80.913 175.317 71.1195C178.278 61.326 177.358 50.7687 172.747 41.6352H172.738ZM150.917 87.4896C145.339 90.2431 139.069 91.2806 132.901 90.471C126.733 89.6615 120.944 87.0412 116.265 82.9416C111.586 78.8419 108.228 73.447 106.616 67.4389C105.003 61.4308 105.208 55.0794 107.205 49.1878C109.201 43.2962 112.9 38.129 117.834 34.3395C122.767 30.55 128.713 28.3084 134.92 27.8982C141.128 27.488 147.317 28.9275 152.706 32.0348C158.095 35.1421 162.442 39.7777 165.197 45.3552C167.026 49.0594 168.108 53.0876 168.38 57.2099C168.653 61.3322 168.111 65.4677 166.785 69.3804C165.458 73.2931 163.375 76.9062 160.652 80.0134C157.929 83.1206 154.621 85.6611 150.917 87.4896Z" fill="#00A7EE"/>
<path opacity="0.3" d="M172.738 41.6352C168.293 32.417 160.471 25.2626 150.894 21.6553C141.317 18.0479 130.72 18.2643 121.298 22.2595C111.876 26.2547 104.353 33.7224 100.288 43.1144C96.2237 52.5063 95.9291 63.1023 99.4656 72.7056C96.2592 73.8288 93.0912 75.0336 89.9424 76.2768C85.4016 78.0784 80.9024 79.96 76.4448 81.9216C71.9904 83.8944 67.5552 85.9056 63.1632 88.008C60.96 89.04 58.7856 90.1296 56.592 91.1856C55.4508 91.676 54.4169 92.3854 53.5488 93.2736C53.079 93.7655 52.6653 94.3081 52.3152 94.8912C51.888 95.581 51.5646 96.3298 51.3552 97.1136C50.994 98.5261 51.1502 100.021 51.7955 101.329C52.4408 102.636 53.5327 103.669 54.8736 104.242C55.6182 104.554 56.4038 104.758 57.2064 104.846C57.8842 104.923 58.5685 104.923 59.2464 104.846C60.4782 104.697 61.6687 104.307 62.7504 103.699C64.9248 102.6 67.1136 101.539 69.2736 100.411C73.5936 98.208 77.9136 95.9088 82.1808 93.576C86.448 91.2432 90.72 88.8 94.8864 86.2944C97.7664 84.552 100.675 82.7712 103.526 80.9088C109.001 89.552 117.592 95.7575 127.517 98.2395C137.443 100.722 147.943 99.2897 156.842 94.2408C165.741 89.1919 172.356 80.913 175.317 71.1195C178.278 61.326 177.358 50.7687 172.747 41.6352H172.738ZM150.917 87.4896C145.339 90.2431 139.069 91.2806 132.901 90.471C126.733 89.6615 120.944 87.0412 116.265 82.9416C111.586 78.8419 108.228 73.447 106.616 67.4389C105.003 61.4308 105.208 55.0794 107.205 49.1878C109.201 43.2962 112.9 38.129 117.834 34.3395C122.767 30.55 128.713 28.3084 134.92 27.8982C141.128 27.488 147.317 28.9275 152.706 32.0348C158.095 35.1421 162.442 39.7777 165.197 45.3552C167.026 49.0594 168.108 53.0876 168.38 57.2099C168.653 61.3322 168.111 65.4677 166.785 69.3804C165.458 73.2931 163.375 76.9062 160.652 80.0134C157.929 83.1206 154.621 85.6611 150.917 87.4896Z" fill="black"/>
<path d="M75.84 49.704C75.84 49.9872 75.9888 50.2176 76.176 50.2176C76.3632 50.2176 76.512 49.9872 76.512 49.704C76.512 49.4208 76.3632 49.1904 76.176 49.1904C75.9888 49.1904 75.84 49.44 75.84 49.704Z" fill="#263238"/>
<path d="M75.9744 50.2177C76.3141 51.087 76.7712 51.9058 77.3328 52.6513C77.1386 52.7902 76.9164 52.8849 76.6817 52.9289C76.4471 52.9728 76.2056 52.9649 75.9744 52.9057V50.2177Z" fill="#FFCCBC"/>
<path d="M74.8464 48.1248C74.8196 48.1248 74.7932 48.1187 74.7691 48.1071C74.745 48.0955 74.7239 48.0785 74.7072 48.0576C74.6822 48.0209 74.6722 47.9761 74.6794 47.9323C74.6865 47.8885 74.7102 47.8492 74.7456 47.8224C74.957 47.6621 75.204 47.5552 75.4656 47.5109C75.7272 47.4666 75.9956 47.4862 76.248 47.568C76.2707 47.5742 76.2918 47.585 76.31 47.5999C76.3282 47.6147 76.3431 47.6332 76.3537 47.6542C76.3643 47.6751 76.3704 47.6981 76.3716 47.7215C76.3728 47.745 76.3691 47.7684 76.3607 47.7904C76.3522 47.8123 76.3393 47.8322 76.3227 47.8488C76.3061 47.8654 76.2862 47.8784 76.2642 47.8868C76.2423 47.8953 76.2189 47.899 76.1954 47.8979C76.1719 47.8967 76.149 47.8906 76.128 47.88C75.9275 47.8185 75.7152 47.806 75.5089 47.8436C75.3026 47.8812 75.1083 47.9677 74.9424 48.096C74.914 48.1148 74.8806 48.1249 74.8464 48.1248Z" fill="#263238"/>
<path d="M66.144 51.8401C66.624 54.4177 67.152 59.1457 65.3472 60.8689C65.3472 60.8689 66.0528 63.4849 70.848 63.4849C76.128 63.4849 73.3632 60.8689 73.3632 60.8689C70.4832 60.1777 70.5648 58.0465 71.064 56.0401L66.144 51.8401Z" fill="#FFCCBC"/>
<path d="M63.192 62.2272C63.7632 61.3392 62.8032 59.184 62.8032 59.184C62.8032 59.184 71.2896 57.048 74.76 60.3264C75.48 61.0032 74.6832 62.0016 74.6832 62.0016L63.192 62.2272Z" fill="#00A7EE"/>
<path opacity="0.1" d="M63.192 62.2272C63.7632 61.3392 62.8032 59.184 62.8032 59.184C62.8032 59.184 71.2896 57.048 74.76 60.3264C75.48 61.0032 74.6832 62.0016 74.6832 62.0016L63.192 62.2272Z" fill="black"/>
<path d="M49.152 160.162C48.7056 160.162 47.9904 159.418 47.7792 159.139C47.7701 159.126 47.7653 159.11 47.7653 159.094C47.7653 159.077 47.7701 159.061 47.7792 159.048C47.7869 159.035 47.7982 159.023 47.8117 159.016C47.8252 159.008 47.8405 159.004 47.856 159.005C47.9088 159.005 49.0848 159.11 49.4064 159.528C49.4414 159.572 49.4663 159.623 49.4796 159.678C49.4929 159.733 49.4941 159.79 49.4832 159.845C49.479 159.916 49.4528 159.985 49.408 160.041C49.3633 160.096 49.3024 160.137 49.2336 160.157L49.152 160.162ZM48.0384 159.202C48.3888 159.605 48.9504 160.061 49.1904 160.003C49.1904 160.003 49.2864 159.979 49.3152 159.826C49.3215 159.794 49.3205 159.76 49.3121 159.729C49.3038 159.697 49.2885 159.668 49.2672 159.643C48.9116 159.374 48.4838 159.217 48.0384 159.192V159.202Z" fill="#00A7EE"/>
<path d="M48.0912 159.192C48.005 159.201 47.9182 159.201 47.832 159.192C47.8168 159.191 47.8023 159.185 47.7904 159.176C47.7784 159.166 47.7695 159.154 47.7648 159.139C47.758 159.126 47.7545 159.111 47.7545 159.096C47.7545 159.081 47.758 159.066 47.7648 159.053C47.7984 159.024 48.504 158.29 49.0368 158.29C49.1005 158.288 49.1639 158.3 49.2226 158.325C49.2814 158.35 49.3342 158.387 49.3776 158.434C49.4254 158.474 49.4581 158.529 49.4703 158.59C49.4825 158.651 49.4735 158.714 49.4448 158.77C49.3056 159.038 48.5712 159.192 48.0912 159.192ZM48.0288 159.024C48.5088 159.024 49.2048 158.875 49.32 158.664C49.32 158.664 49.3536 158.602 49.2768 158.525C49.2488 158.495 49.2146 158.471 49.1765 158.455C49.1383 158.439 49.0972 158.432 49.056 158.434C48.6625 158.524 48.3049 158.73 48.0288 159.024Z" fill="#00A7EE"/>
<path d="M80.8272 171.058C80.4634 171.055 80.1005 171.021 79.7424 170.957C79.7246 170.953 79.7086 170.944 79.6972 170.93C79.6858 170.916 79.6797 170.898 79.68 170.88C79.6773 170.863 79.6795 170.846 79.6863 170.831C79.6932 170.816 79.7043 170.803 79.7184 170.794C79.7712 170.765 81 170.059 81.5904 170.222C81.6452 170.235 81.6968 170.258 81.7422 170.291C81.7876 170.324 81.8258 170.366 81.8544 170.414C81.892 170.468 81.9122 170.532 81.9122 170.597C81.9122 170.662 81.892 170.726 81.8544 170.779C81.7152 170.995 81.2784 171.058 80.8272 171.058ZM80.016 170.832C80.6688 170.928 81.5616 170.923 81.7248 170.693C81.7488 170.664 81.768 170.611 81.7248 170.51C81.6881 170.451 81.6296 170.408 81.5616 170.39C81.1872 170.294 80.4432 170.611 80.016 170.832Z" fill="#00A7EE"/>
<path d="M79.7616 170.962C79.7459 170.966 79.7293 170.966 79.7136 170.962C79.7003 170.953 79.6899 170.941 79.6839 170.926C79.6779 170.911 79.6765 170.895 79.68 170.88C79.7125 170.38 79.9043 169.904 80.2272 169.522C80.2925 169.465 80.3692 169.424 80.452 169.4C80.5348 169.376 80.6219 169.37 80.7072 169.382C80.9376 169.382 81.0048 169.522 81.0192 169.613C81.0816 170.011 80.2416 170.774 79.8144 170.966L79.7616 170.962ZM80.6208 169.522C80.5152 169.521 80.4129 169.558 80.3328 169.627C80.0614 169.93 79.8933 170.312 79.8528 170.717C80.2848 170.453 80.8608 169.858 80.8128 169.618C80.8128 169.618 80.8128 169.536 80.6496 169.522H80.6208Z" fill="#00A7EE"/>
<path d="M75.8832 170.875H79.4112L79.7616 162.71H76.2336L75.8832 170.875Z" fill="#FFCCBC"/>
<path d="M44.4672 156.859L47.4144 158.789L53.9232 153.293L50.9712 151.358L44.4672 156.859Z" fill="#FFCCBC"/>
<path d="M47.8992 158.607L44.8368 156.096C44.7827 156.052 44.7148 156.027 44.6448 156.027C44.5747 156.027 44.5069 156.052 44.4528 156.096L41.928 158.079C41.867 158.127 41.8177 158.189 41.7839 158.259C41.75 158.329 41.7324 158.406 41.7324 158.484C41.7324 158.562 41.75 158.639 41.7839 158.709C41.8177 158.779 41.867 158.841 41.928 158.89C43.0128 159.749 43.584 160.114 44.9328 161.218C45.7632 161.895 47.8128 163.968 48.9696 164.904C50.1264 165.84 51.1872 164.832 50.8032 164.347C49.08 162.163 48.4032 160.296 48.2064 159.139C48.1724 158.93 48.0631 158.741 47.8992 158.607Z" fill="#263238"/>
<path d="M79.3872 170.467H75.5472C75.4772 170.468 75.4093 170.491 75.3544 170.535C75.2996 170.578 75.261 170.639 75.2448 170.707L74.5488 173.842C74.5313 173.918 74.5313 173.997 74.5489 174.073C74.5664 174.148 74.601 174.219 74.65 174.28C74.6991 174.341 74.7612 174.389 74.8319 174.422C74.9025 174.455 74.9797 174.472 75.0576 174.47C76.4448 174.446 78.4512 174.365 80.1984 174.365C82.2384 174.365 84.0048 174.475 86.3952 174.475C87.8352 174.475 88.248 173.011 87.6384 172.882C84.8832 172.277 82.6272 172.214 80.2464 170.741C79.9909 170.572 79.6934 170.477 79.3872 170.467Z" fill="#263238"/>
<path d="M58.3968 61.9201C55.3392 63.3601 53.5968 73.0081 53.5968 73.0081L61.0704 75.9889C62.1644 73.3177 63.0486 70.5654 63.7152 67.7569C64.7424 63.3121 61.5264 60.4321 58.3968 61.9201Z" fill="#263238"/>
<path d="M62.3616 67.3585C60.5136 69.2305 59.6688 72.8977 59.2992 75.2833L61.0896 75.9985C62.1524 73.4031 63.0189 70.7316 63.6816 68.0065C63.5232 66.9889 63.1296 66.5809 62.3616 67.3585Z" fill="#203048"/>
<path d="M78.7872 61.8528C78.7872 61.8528 82.5408 66.096 78.9984 92.3328H60.1392C60.0096 89.4528 61.8288 75.3168 59.0352 61.6752C61.1193 61.2711 63.2279 61.0049 65.3472 60.8784C68.0168 60.7199 70.6935 60.7199 73.3632 60.8784C75.1936 61.0626 77.007 61.3884 78.7872 61.8528Z" fill="#263238"/>
<path d="M80.5104 72.0384L77.3328 66.5616C76.7194 69.117 76.4689 71.746 76.5888 74.3712C76.6752 76.2528 78.3984 83.2224 79.9488 84.24C80.3602 80.1863 80.5476 76.1129 80.5104 72.0384Z" fill="#203048"/>
<path d="M80.952 65.6017C81.432 67.9345 81.912 70.3249 82.4256 72.6673C82.9392 75.0097 83.472 77.3617 84.0912 79.6321C84.2496 80.1937 84.3984 80.7697 84.5712 81.3073L84.7008 81.7201L84.7632 81.9265V81.9025C84.7296 81.8593 84.6912 81.8545 84.72 81.9025C84.9173 82.1179 85.1695 82.2756 85.4496 82.3585C85.9034 82.5273 86.3706 82.6574 86.8464 82.7473C89.1158 83.107 91.4135 83.2564 93.7104 83.1937L94.1664 85.8049C93.5232 86.0113 92.9232 86.1601 92.2896 86.3089C91.656 86.4577 91.032 86.5825 90.3936 86.6785C89.0728 86.8984 87.7336 86.9884 86.3952 86.9473C85.6513 86.9272 84.9114 86.8307 84.1872 86.6593C83.2664 86.4579 82.4011 86.0564 81.6528 85.4833C81.164 85.0886 80.7607 84.5987 80.4672 84.0433C80.3904 83.8993 80.3232 83.7361 80.2608 83.5969L80.1744 83.3713L79.9968 82.8913C79.752 82.2817 79.5504 81.6817 79.3296 81.0817C78.5184 78.6817 77.8416 76.2577 77.2464 73.8385C76.6512 71.4193 76.1376 69.0049 75.7104 66.5233L80.952 65.6017Z" fill="#FFCCBC"/>
<path d="M74.0784 64.4256C73.0848 67.6464 77.112 77.2512 77.112 77.2512L85.1328 75.2352C85.1328 75.2352 84.8256 70.2432 82.9968 66.2832C80.2416 60.312 75.2688 60.5616 74.0784 64.4256Z" fill="#263238"/>
<path d="M93.6432 83.1936L97.6368 83.0928L95.7168 87.2496C95.7168 87.2496 94.0896 87.4656 92.7552 85.272L91.3488 83.592L92.9664 83.2704C93.189 83.2235 93.4156 83.1978 93.6432 83.1936Z" fill="#FFCCBC"/>
<path d="M100.157 83.8656L97.872 87.312L95.7168 87.2496L97.6368 83.0928L100.157 83.8656Z" fill="#FFCCBC"/>
<path d="M79.7616 162.71L79.5792 166.92H76.0512L76.2336 162.71H79.7616Z" fill="#FFCCBC"/>
<path d="M50.9712 151.358L53.9232 153.293L50.5632 156.125L47.616 154.195L50.9712 151.358Z" fill="#FFCCBC"/>
<path d="M66.3648 49.0944C66.576 52.584 66.5232 54.6432 68.2848 56.4336C70.9344 59.136 75.2496 57.5376 76.0848 54.0336C76.8384 50.8944 76.368 45.7104 72.9504 44.3184C72.1963 44.014 71.3772 43.9062 70.5701 44.0051C69.7629 44.104 68.9941 44.4063 68.3358 44.8838C67.6775 45.3612 67.1512 45.998 66.8065 46.7345C66.4617 47.471 66.3097 48.2831 66.3648 49.0944Z" fill="#FFCCBC"/>
<path d="M62.256 48.48C63.1248 51.6624 65.1696 55.3296 67.8144 55.5648C71.0976 55.8528 72.5808 52.4592 73.0128 48.9552C74.9808 47.6064 73.9488 46.1232 75.9216 45.936C78.456 45.696 77.6448 41.0592 74.3088 40.3152C74.3088 40.3152 75.4272 42.4032 73.08 41.3472C70.8478 40.2864 68.3678 39.8565 65.9088 40.104C65.9088 40.104 68.904 41.6016 65.976 42.2688C63.048 42.936 62.1744 44.7408 63.5232 45.8304C63.5232 45.8352 61.6848 46.3872 62.256 48.48Z" fill="#263238"/>
<path d="M71.0112 49.6753C71.0757 50.5427 71.425 51.3645 72.0048 52.0129C72.7728 52.8625 73.5744 52.3345 73.7088 51.3025C73.8336 50.3761 73.5792 48.8161 72.6384 48.3457C71.6976 47.8753 70.9488 48.6289 71.0112 49.6753Z" fill="#FFCCBC"/>
<path d="M72.3072 92.3329C72.3072 92.3329 75.744 117.221 73.0368 127.195C68.7456 142.987 52.3392 156.317 52.3392 156.317L46.776 152.669C46.776 152.669 60.7488 141.413 62.4576 128.189C63.9936 116.319 60.1392 101.962 60.1392 92.3281L72.3072 92.3329Z" fill="#00A7EE"/>
<path opacity="0.1" d="M72.3072 92.3329C72.3072 92.3329 75.744 117.221 73.0368 127.195C68.7456 142.987 52.3392 156.317 52.3392 156.317L46.776 152.669C46.776 152.669 60.7488 141.413 62.4576 128.189C63.9936 116.319 60.1392 101.962 60.1392 92.3281L72.3072 92.3329Z" fill="black"/>
<path d="M73.728 106.56C72.813 105.512 71.8058 104.548 70.7184 103.68C71.304 111.758 71.784 123.725 71.2512 132.226C71.9676 130.596 72.5643 128.916 73.0368 127.2C74.3568 122.328 74.2176 113.914 73.728 106.56Z" fill="#00A7EE"/>
<path opacity="0.3" d="M73.728 106.56C72.813 105.512 71.8058 104.548 70.7184 103.68C71.304 111.758 71.784 123.725 71.2512 132.226C71.9676 130.596 72.5643 128.916 73.0368 127.2C74.3568 122.328 74.2176 113.914 73.728 106.56Z" fill="black"/>
<path d="M54.5808 155.074C54.6048 155.074 52.4256 156.514 52.4256 156.514L46.3488 152.53L48.2688 150.941L54.5808 155.074Z" fill="#00A7EE"/>
<path opacity="0.3" d="M54.5808 155.074C54.6048 155.074 52.4256 156.514 52.4256 156.514L46.3488 152.53L48.2688 150.941L54.5808 155.074Z" fill="black"/>
<path d="M78.9984 92.3329C78.9984 92.3329 84.3072 114.845 84.6816 125.602C85.104 137.659 80.8944 166.104 80.8944 166.104H74.9184C74.9184 166.104 74.184 137.438 73.92 126.456C73.6272 114.48 66.6 92.3329 66.6 92.3329H78.9984Z" fill="#00A7EE"/>
<path opacity="0.1" d="M78.9984 92.3329C78.9984 92.3329 84.3072 114.845 84.6816 125.602C85.104 137.659 80.8944 166.104 80.8944 166.104H74.9184C74.9184 166.104 74.184 137.438 73.92 126.456C73.6272 114.48 66.6 92.3329 66.6 92.3329H78.9984Z" fill="black"/>
<path d="M82.0416 163.728C82.0704 163.728 81.7056 166.205 81.7056 166.205H74.4384L74.2416 163.992L82.0416 163.728Z" fill="#00A7EE"/>
<path opacity="0.3" d="M82.0416 163.728C82.0704 163.728 81.7056 166.205 81.7056 166.205H74.4384L74.2416 163.992L82.0416 163.728Z" fill="black"/>
<path d="M170.88 70.6993C171.288 71.0833 171.61 71.4097 171.946 71.7745C172.282 72.1393 172.598 72.4945 172.906 72.8641C173.53 73.5985 174.115 74.3713 174.682 75.1489C175.813 76.7088 176.819 78.3555 177.691 80.0737L177.869 80.4241C177.955 80.5938 178.028 80.7704 178.085 80.9521C178.201 81.3034 178.272 81.6679 178.296 82.0369C178.327 82.6878 178.238 83.3387 178.032 83.9569C177.681 84.9838 177.16 85.9444 176.491 86.7985C175.285 88.3475 173.862 89.7151 172.267 90.8593L171.072 89.4865C171.634 88.8289 172.219 88.1233 172.742 87.4177C173.275 86.7341 173.756 86.0121 174.182 85.2577C174.581 84.5995 174.875 83.884 175.056 83.1361C175.118 82.8686 175.129 82.5919 175.09 82.3201C175.072 82.2288 175.043 82.14 175.003 82.0561C174.985 82.0193 174.964 81.984 174.941 81.9505L174.787 81.6913C173.861 80.1819 172.857 78.7223 171.778 77.3185C171.245 76.6129 170.674 75.9361 170.098 75.2689C169.814 74.9329 169.522 74.6065 169.229 74.2801C168.936 73.9537 168.619 73.6273 168.365 73.3729L170.88 70.6993Z" fill="#FFCCBC"/>
<path d="M171.533 89.0833L167.947 88.4977L169.824 91.6369C169.824 91.6369 172.133 91.5553 172.79 90.1969L171.533 89.0833Z" fill="#FFCCBC"/>
<path d="M165.298 89.9473L167.006 92.4961L169.824 91.6369L167.947 88.4977L165.298 89.9473Z" fill="#FFCCBC"/>
<path d="M171.36 171.015C171.116 171.035 170.873 170.969 170.674 170.827C170.613 170.771 170.569 170.699 170.545 170.62C170.52 170.541 170.517 170.457 170.534 170.376C170.538 170.325 170.555 170.275 170.585 170.233C170.615 170.19 170.655 170.157 170.702 170.136C171.12 169.949 172.214 170.65 172.339 170.731C172.353 170.74 172.364 170.753 172.37 170.769C172.377 170.784 172.377 170.802 172.373 170.818C172.371 170.834 172.364 170.85 172.353 170.862C172.341 170.874 172.327 170.882 172.31 170.885C171.999 170.964 171.681 171.007 171.36 171.015ZM170.88 170.271C170.845 170.265 170.809 170.265 170.774 170.271C170.753 170.28 170.735 170.296 170.723 170.315C170.71 170.335 170.703 170.358 170.702 170.381C170.69 170.435 170.691 170.49 170.706 170.543C170.721 170.596 170.75 170.645 170.789 170.683C170.971 170.847 171.442 170.871 172.07 170.746C171.71 170.508 171.305 170.346 170.88 170.271Z" fill="#00A7EE"/>
<path d="M172.32 170.88H172.277C171.936 170.683 171.278 169.92 171.36 169.502C171.375 169.437 171.412 169.378 171.464 169.334C171.516 169.291 171.58 169.266 171.648 169.262C171.713 169.253 171.779 169.259 171.841 169.279C171.904 169.299 171.961 169.332 172.008 169.378C172.402 169.723 172.406 170.76 172.406 170.818C172.405 170.832 172.401 170.846 172.394 170.859C172.386 170.871 172.376 170.882 172.363 170.89L172.32 170.88ZM171.706 169.44H171.667C171.562 169.44 171.538 169.498 171.528 169.541C171.48 169.786 171.888 170.371 172.229 170.645C172.237 170.242 172.122 169.847 171.898 169.512C171.869 169.485 171.835 169.465 171.797 169.453C171.76 169.44 171.721 169.436 171.682 169.44H171.706Z" fill="#00A7EE"/>
<path d="M155.002 171.015C154.695 171.044 154.388 170.966 154.133 170.794C154.075 170.743 154.031 170.679 154.003 170.607C153.976 170.535 153.966 170.457 153.974 170.381C153.978 170.334 153.992 170.289 154.018 170.25C154.043 170.21 154.077 170.178 154.118 170.155C154.565 169.906 155.995 170.635 156.158 170.727C156.173 170.736 156.185 170.75 156.193 170.766C156.201 170.782 156.204 170.8 156.202 170.818C156.199 170.835 156.191 170.85 156.179 170.862C156.167 170.874 156.151 170.882 156.134 170.885C155.762 170.964 155.382 171.008 155.002 171.015ZM154.363 170.271C154.308 170.267 154.253 170.279 154.205 170.304C154.188 170.312 154.173 170.325 154.163 170.341C154.153 170.358 154.147 170.376 154.147 170.395C154.14 170.445 154.145 170.496 154.161 170.544C154.178 170.592 154.206 170.635 154.243 170.669C154.464 170.866 155.054 170.899 155.851 170.765C155.387 170.518 154.884 170.35 154.363 170.271Z" fill="#00A7EE"/>
<path d="M156.12 170.88H156.082C155.654 170.688 154.805 169.92 154.872 169.503C154.872 169.407 154.958 169.287 155.194 169.263C155.28 169.253 155.366 169.262 155.449 169.287C155.532 169.313 155.608 169.355 155.674 169.411C156.125 169.786 156.211 170.755 156.211 170.799C156.213 170.813 156.211 170.828 156.205 170.842C156.199 170.855 156.19 170.867 156.178 170.875C156.159 170.883 156.139 170.885 156.12 170.88ZM155.261 169.44H155.208C155.054 169.44 155.045 169.517 155.04 169.536C155.002 169.781 155.578 170.391 156 170.655C155.958 170.244 155.791 169.857 155.52 169.546C155.447 169.484 155.356 169.447 155.261 169.44Z" fill="#00A7EE"/>
<path d="M161.794 59.6641C161.654 61.8337 161.28 66.2401 162.946 67.4593C162.946 67.4593 162.643 69.6817 158.712 70.2001C154.392 70.7617 156.365 68.3233 156.365 68.3233C158.654 67.4497 158.362 65.7073 157.738 64.1137L161.794 59.6641Z" fill="#FFCCBC"/>
<path d="M152.851 55.8289C152.827 55.829 152.804 55.8239 152.782 55.8139C152.761 55.804 152.742 55.7894 152.726 55.7713C152.589 55.6085 152.416 55.4802 152.22 55.3968C152.024 55.3135 151.811 55.2773 151.598 55.2913C151.576 55.2954 151.553 55.2949 151.531 55.2898C151.508 55.2847 151.487 55.2751 151.469 55.2616C151.451 55.2482 151.435 55.2311 151.424 55.2114C151.412 55.1918 151.404 55.17 151.402 55.1473C151.396 55.1022 151.409 55.0567 151.437 55.0208C151.464 54.9848 151.505 54.9613 151.55 54.9553C151.821 54.9324 152.094 54.9755 152.345 55.0808C152.595 55.1861 152.817 55.3506 152.99 55.5601C153.011 55.5852 153.024 55.6155 153.029 55.6478C153.033 55.6801 153.028 55.7129 153.015 55.7425C153.001 55.7721 152.979 55.7972 152.952 55.8151C152.925 55.8329 152.893 55.8427 152.861 55.8433L152.851 55.8289Z" fill="#263238"/>
<path d="M152.102 57.9553C151.932 58.6438 151.669 59.3059 151.32 59.9233C151.48 60.0096 151.657 60.0594 151.839 60.0694C152.021 60.0793 152.202 60.0491 152.371 59.9809L152.102 57.9553Z" fill="#FFCCBC"/>
<path d="M152.294 57.4273C152.333 57.7153 152.213 57.9649 152.026 57.9937C151.838 58.0225 151.651 57.8017 151.618 57.5137C151.584 57.2257 151.699 56.9761 151.886 56.9521C152.074 56.9281 152.261 57.1201 152.294 57.4273Z" fill="#263238"/>
<path d="M151.973 56.9568L151.258 56.8464C151.258 56.8464 151.68 57.3408 151.973 56.9568Z" fill="#263238"/>
<path d="M160.075 170.803H156.475L156.235 162.475H159.835L160.075 170.803Z" fill="#FFCCBC"/>
<path d="M176.419 170.803H172.819L171.662 162.475H175.262L176.419 170.803Z" fill="#FFCCBC"/>
<path d="M172.598 170.4H176.64C176.709 170.4 176.776 170.424 176.828 170.469C176.88 170.514 176.914 170.577 176.923 170.645L177.403 173.847C177.412 173.927 177.404 174.009 177.379 174.086C177.354 174.163 177.313 174.235 177.258 174.295C177.204 174.355 177.137 174.403 177.063 174.436C176.989 174.469 176.908 174.485 176.827 174.485C175.421 174.461 174.739 174.379 172.963 174.379C171.869 174.379 170.27 174.49 168.763 174.49C167.256 174.49 167.174 172.997 167.803 172.863C170.621 172.258 171.067 171.423 172.013 170.621C172.178 170.484 172.384 170.406 172.598 170.4Z" fill="#263238"/>
<path d="M156.355 170.4H160.392C160.461 170.399 160.529 170.424 160.582 170.469C160.635 170.514 160.67 170.576 160.68 170.645L161.16 173.847C161.169 173.927 161.16 174.009 161.135 174.086C161.11 174.163 161.069 174.235 161.015 174.295C160.961 174.355 160.894 174.403 160.82 174.436C160.746 174.469 160.665 174.485 160.584 174.485C159.178 174.461 158.496 174.379 156.72 174.379C155.626 174.379 153.36 174.49 151.853 174.49C150.346 174.49 150.264 172.997 150.893 172.863C153.71 172.258 154.819 171.423 155.77 170.621C155.935 170.484 156.141 170.406 156.355 170.4Z" fill="#263238"/>
<path d="M156.235 162.475L156.36 166.771H159.96L159.835 162.475H156.235Z" fill="#FFCCBC"/>
<path d="M175.262 162.475H171.662L172.262 166.771H175.858L175.262 162.475Z" fill="#FFCCBC"/>
<path d="M161.842 55.1714C162.086 58.733 162.264 60.2354 160.718 62.285C158.39 65.3618 153.965 64.8866 152.659 61.469C151.483 58.3922 151.282 53.0882 154.555 51.2258C155.275 50.8131 156.089 50.5912 156.919 50.5812C157.749 50.5712 158.568 50.7734 159.298 51.1686C160.028 51.5638 160.644 52.139 161.09 52.8395C161.535 53.5401 161.794 54.3427 161.842 55.1714Z" fill="#FFCCBC"/>
<path d="M163.915 58.4785C165.912 59.5921 167.395 56.8465 167.395 56.8465C167.395 56.8465 163.814 57.2353 164.136 55.1041C164.558 52.2769 162.533 48.8401 157.454 49.2817C157.171 49.3057 156.902 49.3393 156.638 49.3825C156.107 49.1305 155.506 49.0654 154.932 49.1979C154.359 49.3303 153.847 49.6524 153.48 50.1121C152.04 50.2321 150.096 51.9505 151.416 54.2209C151.509 53.96 151.652 53.7202 151.838 53.5153C151.949 54.8449 153.11 56.9569 154.56 57.0961C154.872 58.9153 153.662 61.0225 154.08 62.9233C154.699 65.6641 159.322 66.2833 159.322 66.2833C159.162 65.941 159.103 65.5606 159.15 65.1861C159.198 64.8115 159.35 64.4581 159.59 64.1665C162.73 65.6065 164.798 64.2001 164.798 64.2001C162.658 63.4033 163.306 61.9825 163.306 61.9825C164.045 62.3107 164.882 62.3395 165.642 62.0629C166.402 61.7863 167.025 61.2258 167.381 60.4993C166.67 60.5331 165.964 60.3602 165.349 60.0016C164.734 59.643 164.236 59.114 163.915 58.4785Z" fill="#263238"/>
<path d="M155.813 57.6433C155.821 57.9852 155.762 58.3253 155.638 58.6441C155.515 58.9629 155.329 59.2541 155.093 59.501C154.459 60.1586 153.682 59.6977 153.47 58.8577C153.283 58.0993 153.389 56.8466 154.214 56.501C154.396 56.4295 154.593 56.4047 154.786 56.4287C154.98 56.4526 155.165 56.5246 155.324 56.6381C155.483 56.7517 155.611 56.9031 155.696 57.0786C155.781 57.2542 155.821 57.4483 155.813 57.6433Z" fill="#FFCCBC"/>
<path d="M158.803 90.8257C158.803 90.8257 159.715 114.518 161.885 128.429C163.632 139.67 171.394 165.936 171.394 165.936H176.299C176.299 165.936 172.253 140.568 171.365 129.456C169.118 101.333 174.95 95.2945 169.445 89.4385L158.803 90.8257Z" fill="#263238"/>
<path d="M162.902 98.3185C162.902 98.3185 160.685 97.9345 159.389 102.159C159.869 110.16 160.69 120.778 161.885 128.429C162.149 130.133 162.552 132.187 163.046 134.439C162.11 120.922 162.902 98.3185 162.902 98.3185Z" fill="#161F33"/>
<path d="M154.978 91.325C154.978 91.325 150.936 117.538 151.171 128.506C151.416 139.915 155.597 165.946 155.597 165.946H160.459C160.459 165.946 159.691 140.592 160.118 129.389C160.598 117.173 165.586 89.9474 165.586 89.9474L154.978 91.325Z" fill="#263238"/>
<path d="M177.01 166.167H170.486L169.978 163.978L176.962 164.026L177.01 166.167Z" fill="#00A7EE"/>
<path opacity="0.2" d="M177.01 166.167H170.486L169.978 163.978L176.962 164.026L177.01 166.167Z" fill="black"/>
<path d="M169.2 67.4641C171.077 67.6465 173.928 72.9793 173.928 72.9793L169.19 76.6129C169.19 76.6129 165.269 73.1713 165.734 71.2369C166.219 69.2257 167.4 67.2961 169.2 67.4641Z" fill="#00A7EE"/>
<path opacity="0.1" d="M169.2 67.4641C171.077 67.6465 173.928 72.9793 173.928 72.9793L169.19 76.6129C169.19 76.6129 165.269 73.1713 165.734 71.2369C166.219 69.2257 167.4 67.2961 169.2 67.4641Z" fill="black"/>
<path d="M167.784 69.7585C167.306 69.6296 166.81 69.5746 166.315 69.5953C166.063 70.1201 165.869 70.6705 165.734 71.2369C165.254 73.1569 169.19 76.6129 169.19 76.6129L169.541 76.3441L167.784 69.7585Z" fill="#00A7EE"/>
<path opacity="0.3" d="M167.784 69.7585C167.306 69.6296 166.81 69.5746 166.315 69.5953C166.063 70.1201 165.869 70.6705 165.734 71.2369C165.254 73.1569 169.19 76.6129 169.19 76.6129L169.541 76.3441L167.784 69.7585Z" fill="black"/>
<path d="M153.37 74.8802C152.002 78.341 150.562 81.8594 149.414 85.3298C149.338 85.5506 149.275 85.7618 149.208 85.9778L149.045 86.5106C149 86.6675 149 86.8337 149.045 86.9906C149.316 87.5907 149.746 88.1053 150.288 88.4786C151.723 89.5083 153.287 90.3458 154.939 90.9698L154.507 92.7362C152.474 92.4682 150.509 91.827 148.709 90.845C147.601 90.2533 146.699 89.3394 146.122 88.2242C145.79 87.5114 145.675 86.717 145.79 85.9394C145.801 85.8442 145.817 85.7497 145.838 85.6562L145.886 85.4546L145.968 85.0898C146.026 84.845 146.083 84.6098 146.146 84.3698C146.626 82.4498 147.24 80.6258 147.888 78.8162C148.536 77.0066 149.213 75.221 149.976 73.4402L153.37 74.8802Z" fill="#FFCCBC"/>
<path d="M150.456 70.0225C150.456 70.0225 148.834 70.8433 154.978 91.3249L169.464 89.4337C168.446 83.5681 167.966 79.9345 169.2 67.4641C167.123 67.3153 165.037 67.3153 162.96 67.4641C160.748 67.5927 158.549 67.8815 156.379 68.3281C153.6 68.9473 150.456 70.0225 150.456 70.0225Z" fill="#00A7EE"/>
<path opacity="0.1" d="M150.456 70.0225C150.456 70.0225 148.834 70.8433 154.978 91.3249L169.464 89.4337C168.446 83.5681 167.966 79.9345 169.2 67.4641C167.123 67.3153 165.037 67.3153 162.96 67.4641C160.748 67.5927 158.549 67.8815 156.379 68.3281C153.6 68.9473 150.456 70.0225 150.456 70.0225Z" fill="black"/>
<path d="M169.57 88.5553L170.4 89.7601C170.462 89.8561 170.357 89.9713 170.194 89.9953L155.002 91.9825C154.872 91.9825 154.752 91.9489 154.733 91.8673L154.435 90.5857C154.411 90.4993 154.517 90.4081 154.661 90.3889L169.33 88.4689C169.374 88.4618 169.419 88.4661 169.461 88.4812C169.503 88.4963 169.54 88.5218 169.57 88.5553Z" fill="#00A7EE"/>
<path opacity="0.2" d="M169.57 88.5553L170.4 89.7601C170.462 89.8561 170.357 89.9713 170.194 89.9953L155.002 91.9825C154.872 91.9825 154.752 91.9489 154.733 91.8673L154.435 90.5857C154.411 90.4993 154.517 90.4081 154.661 90.3889L169.33 88.4689C169.374 88.4618 169.419 88.4661 169.461 88.4812C169.503 88.4963 169.54 88.5218 169.57 88.5553Z" fill="black"/>
<path d="M167.813 90.4513L168.206 90.3985C168.283 90.3985 168.336 90.3409 168.326 90.2929L167.923 88.6321C167.908 88.6038 167.883 88.5816 167.854 88.5693C167.824 88.5571 167.791 88.5555 167.76 88.5649L167.366 88.6129C167.285 88.6129 167.232 88.6705 167.246 88.7233L167.65 90.3793C167.659 90.4321 167.736 90.4609 167.813 90.4513Z" fill="#263238"/>
<path d="M158.29 91.6801L158.683 91.6273C158.76 91.6273 158.818 91.5697 158.803 91.5217L158.4 89.8609C158.384 89.8328 158.36 89.8107 158.33 89.7977C158.301 89.7847 158.268 89.7816 158.237 89.7889L157.843 89.8417C157.766 89.8417 157.709 89.8993 157.723 89.9473L158.126 91.6081C158.136 91.6801 158.213 91.7089 158.29 91.6801Z" fill="#263238"/>
<path d="M151.133 76.9729C151.531 78.8257 152.093 81.1729 152.914 84.1441L153.091 76.6129L151.133 76.9729Z" fill="#00A7EE"/>
<path opacity="0.3" d="M151.133 76.9729C151.531 78.8257 152.093 81.1729 152.914 84.1441L153.091 76.6129L151.133 76.9729Z" fill="black"/>
<path d="M150.456 70.0225C148.656 70.7473 147.096 76.9057 147.096 76.9057L153.288 79.9201C153.288 79.9201 156.278 72.3889 154.939 70.9201C153.6 69.4513 152.53 69.1921 150.456 70.0225Z" fill="#00A7EE"/>
<path opacity="0.1" d="M150.456 70.0225C148.656 70.7473 147.096 76.9057 147.096 76.9057L153.288 79.9201C153.288 79.9201 156.278 72.3889 154.939 70.9201C153.6 69.4513 152.53 69.1921 150.456 70.0225Z" fill="black"/>
<path d="M161.29 166.167H154.766L154.258 163.978L161.52 164.026L161.29 166.167Z" fill="#00A7EE"/>
<path opacity="0.2" d="M161.29 166.167H154.766L154.258 163.978L161.52 164.026L161.29 166.167Z" fill="black"/>
<path d="M155.04 90.3745L154.517 90.1585C154.388 90.1062 154.248 90.0888 154.11 90.1082C153.973 90.1275 153.843 90.1829 153.734 90.2687C153.625 90.3545 153.54 90.4676 153.489 90.5966C153.437 90.7256 153.421 90.8659 153.442 91.0033L153.821 93.5041C153.839 93.6292 153.885 93.7488 153.955 93.8541C154.025 93.9594 154.117 94.0479 154.226 94.1131C154.334 94.1783 154.456 94.2186 154.582 94.2312C154.707 94.2437 154.834 94.2282 154.954 94.1857C155.144 94.1165 155.322 94.0177 155.482 93.8929C155.655 93.7489 155.793 93.5662 155.883 93.3594C155.973 93.1526 156.013 92.9276 156 92.7025L155.947 91.6657C155.938 91.3855 155.847 91.1141 155.686 90.8847C155.525 90.6554 155.3 90.478 155.04 90.3745Z" fill="#FFCCBC"/>
</svg>
