<svg width="304" height="294" viewBox="0 0 304 294" fill="none" xmlns="http://www.w3.org/2000/svg">
    <g clip-path="url(#clip0_4691_2653)">
        <path d="M184.362 83.726H119.692C118.219 83.7278 116.806 84.3033 115.764 85.3264C114.722 86.3495 114.135 87.7366 114.134 89.1834V230.293L113.392 230.514L97.528 235.284C96.7761 235.509 95.964 235.432 95.27 235.07C94.5759 234.708 94.0566 234.09 93.826 233.352L46.6364 82.0197C46.4068 81.2815 46.4851 80.4841 46.8541 79.8025C47.223 79.121 47.8525 78.6112 48.6042 78.3851L73.0514 71.0359L143.924 49.7376L168.371 42.3884C168.743 42.2759 169.134 42.2367 169.522 42.2728C169.91 42.3089 170.286 42.4196 170.63 42.5987C170.974 42.7778 171.278 43.0218 171.526 43.3165C171.774 43.6113 171.96 43.9512 172.074 44.3166L184.136 82.9984L184.362 83.726Z"
              fill="#F2F2F2"/>
        <path d="M198.474 82.9986L183.936 36.3782C183.694 35.6014 183.298 34.879 182.772 34.2523C182.246 33.6256 181.599 33.1069 180.868 32.7258C180.138 32.3446 179.338 32.1086 178.514 32.0311C177.69 31.9536 176.859 32.0363 176.068 32.2742L141.697 42.6032L70.8279 63.9051L36.4567 74.2377C34.86 74.719 33.5231 75.8027 32.7394 77.2508C31.9556 78.6989 31.7892 80.3932 32.2765 81.9617L81.9637 241.291C82.3595 242.557 83.1583 243.665 84.2428 244.453C85.3273 245.241 86.6404 245.667 87.9894 245.668C88.6137 245.668 89.2346 245.576 89.831 245.395L113.392 238.315L114.134 238.089V237.329L113.392 237.551L89.6125 244.7C88.2031 245.122 86.6808 244.978 85.3796 244.299C84.0784 243.62 83.1045 242.463 82.6715 241.08L32.9881 81.747C32.7736 81.0619 32.6988 80.342 32.7681 79.6285C32.8374 78.9149 33.0493 78.2218 33.3918 77.5888C33.7343 76.9559 34.2006 76.3954 34.7641 75.9396C35.3275 75.4838 35.977 75.1416 36.6753 74.9326L71.0464 64.6L141.916 43.3017L176.287 32.9691C176.817 32.8104 177.367 32.7295 177.921 32.729C179.11 32.7316 180.266 33.1078 181.221 33.8025C182.176 34.4971 182.879 35.4737 183.228 36.5892L197.699 82.9986L197.929 83.7262H198.7L198.474 82.9986Z"
              fill="#3F3D56"/>
        <path d="M77.4629 78.5039C76.7487 78.5034 76.0534 78.2782 75.4791 77.8614C74.9047 77.4445 74.4816 76.8579 74.2717 76.1876L69.4986 60.8809C69.3703 60.4697 69.3258 60.0378 69.3676 59.6097C69.4094 59.1817 69.5366 58.7659 69.7421 58.3861C69.9476 58.0064 70.2273 57.6701 70.5652 57.3964C70.903 57.1228 71.2925 56.9172 71.7113 56.7914L136.911 37.1945C137.756 36.9411 138.67 37.0275 139.451 37.4348C140.232 37.842 140.816 38.5369 141.076 39.3668L145.849 54.6737C146.107 55.504 146.019 56.401 145.604 57.1677C145.19 57.9343 144.482 58.5082 143.637 58.7633L78.4373 78.3602C78.1216 78.4554 77.7932 78.5038 77.4629 78.5039Z"
              fill="#00A7EE"/>
        <path d="M102.467 48.3557C106.56 48.3557 109.878 45.0979 109.878 41.0792C109.878 37.0605 106.56 33.8027 102.467 33.8027C98.3735 33.8027 95.0552 37.0605 95.0552 41.0792C95.0552 45.0979 98.3735 48.3557 102.467 48.3557Z"
              fill="#00A7EE"/>
        <path d="M102.467 45.6871C105.059 45.6871 107.16 43.6241 107.16 41.0794C107.16 38.5346 105.059 36.4717 102.467 36.4717C99.8748 36.4717 97.7736 38.5346 97.7736 41.0794C97.7736 43.6241 99.8748 45.6871 102.467 45.6871Z"
              fill="white"/>
        <path d="M255.324 243.809H130.069C129.233 243.808 128.433 243.482 127.842 242.902C127.252 242.323 126.92 241.536 126.919 240.717V93.3679C126.92 92.548 127.252 91.7619 127.842 91.1822C128.433 90.6024 129.233 90.2763 130.069 90.2754H255.324C256.159 90.2763 256.96 90.6025 257.55 91.1822C258.141 91.762 258.473 92.548 258.474 93.3679V240.717C258.473 241.536 258.141 242.323 257.55 242.902C256.96 243.482 256.159 243.808 255.324 243.809Z"
              fill="#E6E6E6"/>
        <path d="M197.699 82.999H119.692C118.022 83.0013 116.421 83.6537 115.24 84.8131C114.059 85.9725 113.395 87.5444 113.392 89.184V237.551L114.134 237.33V89.184C114.135 87.7372 114.722 86.3501 115.764 85.327C116.806 84.304 118.219 83.7284 119.692 83.7267H197.929L197.699 82.999ZM265.7 82.999H119.692C118.022 83.0013 116.421 83.6537 115.24 84.8131C114.059 85.9725 113.395 87.5444 113.392 89.184V255.815C113.395 257.455 114.059 259.027 115.24 260.186C116.421 261.346 118.022 261.998 119.692 262H265.7C267.37 261.998 268.971 261.346 270.152 260.186C271.333 259.027 271.998 257.455 272 255.815V89.184C271.998 87.5444 271.333 85.9725 270.152 84.8131C268.971 83.6537 267.37 83.0013 265.7 82.999ZM271.259 255.815C271.257 257.262 270.671 258.649 269.629 259.672C268.587 260.695 267.174 261.271 265.7 261.273H119.692C118.219 261.271 116.806 260.695 115.764 259.672C114.722 258.649 114.135 257.262 114.134 255.815V89.184C114.135 87.7372 114.722 86.3501 115.764 85.327C116.806 84.304 118.219 83.7284 119.692 83.7267H265.7C267.174 83.7284 268.587 84.304 269.629 85.327C270.671 86.3501 271.257 87.7372 271.259 89.184V255.815Z"
              fill="#3F3D56"/>
        <path d="M226.79 99.0073H158.603C157.719 99.0063 156.871 98.661 156.246 98.0471C155.621 97.4333 155.269 96.601 155.268 95.7329V79.7246C155.269 78.8565 155.621 78.0242 156.246 77.4103C156.871 76.7965 157.719 76.4512 158.603 76.4502H226.79C227.674 76.4512 228.521 76.7965 229.147 77.4103C229.772 78.0242 230.124 78.8565 230.125 79.7246V95.7329C230.124 96.601 229.772 97.4333 229.147 98.0471C228.522 98.661 227.674 99.0063 226.79 99.0073Z"
              fill="#00A7EE"/>
        <path d="M192.696 77.5412C196.79 77.5412 200.108 74.2835 200.108 70.2648C200.108 66.2461 196.79 62.9883 192.696 62.9883C188.603 62.9883 185.285 66.2461 185.285 70.2648C185.285 74.2835 188.603 77.5412 192.696 77.5412Z"
              fill="#00A7EE"/>
        <path d="M192.696 74.6971C195.189 74.6971 197.211 72.7128 197.211 70.2651C197.211 67.8173 195.189 65.833 192.696 65.833C190.203 65.833 188.182 67.8173 188.182 70.2651C188.182 72.7128 190.203 74.6971 192.696 74.6971Z"
              fill="white"/>
    </g>
    <defs>
        <clipPath id="clip0_4691_2653">
            <rect width="240" height="230" fill="white" transform="translate(32 32)"/>
        </clipPath>
    </defs>
</svg>
